<?xml version="1.0" encoding="UTF-8" standalone="no"?>
<!-- Created with Inkscape (http://www.inkscape.org/) -->

<svg
   xmlns:dc="http://purl.org/dc/elements/1.1/"
   xmlns:cc="http://creativecommons.org/ns#"
   xmlns:rdf="http://www.w3.org/1999/02/22-rdf-syntax-ns#"
   xmlns:svg="http://www.w3.org/2000/svg"
   xmlns="http://www.w3.org/2000/svg"
   xmlns:sodipodi="http://sodipodi.sourceforge.net/DTD/sodipodi-0.dtd"
   xmlns:inkscape="http://www.inkscape.org/namespaces/inkscape"
   width="256.09"
   height="256.82999"
   id="svg2"
   version="1.1"
   inkscape:version="0.48.4 r9939"
   sodipodi:docname="cat.svg"
   inkscape:export-filename="/home/mark/Workspace/personal/markstimetracker/data/cat.png"
   inkscape:export-xdpi="16.870001"
   inkscape:export-ydpi="16.870001">
  <defs
     id="defs4" />
  <sodipodi:namedview
     id="base"
     pagecolor="#ffffff"
     bordercolor="#666666"
     borderopacity="1.0"
     inkscape:pageopacity="0.0"
     inkscape:pageshadow="2"
     inkscape:zoom="0.49497475"
     inkscape:cx="-78.739507"
     inkscape:cy="-11.297475"
     inkscape:document-units="px"
     inkscape:current-layer="layer1"
     showgrid="false"
     inkscape:window-width="1920"
     inkscape:window-height="1025"
     inkscape:window-x="0"
     inkscape:window-y="30"
     inkscape:window-maximized="1"
     fit-margin-top="0"
     fit-margin-left="0"
     fit-margin-right="0"
     fit-margin-bottom="0" />
  <metadata
     id="metadata7">
    <rdf:RDF>
      <cc:Work
         rdf:about="">
        <dc:format>image/svg+xml</dc:format>
        <dc:type
           rdf:resource="http://purl.org/dc/dcmitype/StillImage" />
        <dc:title></dc:title>
      </cc:Work>
    </rdf:RDF>
  </metadata>
  <g
     inkscape:label="Layer 1"
     inkscape:groupmode="layer"
     id="layer1"
     transform="translate(-240.95711,-513.22637)">
    <g
       id="g3179"
       transform="translate(105.05586,408.30468)">
      <path
         style="fill:#d9d3c5"
         d="m 208.90125,340.81015 c -32.05702,-1.9511 -59.38343,-6.0033 -67.12814,-9.95435 -4.5591,-2.32588 -5.06586,-5.10619 -1.37186,-7.52659 3.0248,-1.98192 3.16006,-3.06377 0.48903,-3.91152 -6.22399,-1.97542 -6.72305,-17.19042 -0.84113,-25.6438 1.43255,-2.05882 1.70166,-3.67114 1.21067,-7.2533 -0.59609,-4.34896 -0.42838,-4.79743 3.00505,-8.03557 3.19045,-3.00898 3.63638,-4.01222 3.63638,-8.18109 0,-2.61336 0.71543,-7.30132 1.58984,-10.4177 l 1.58984,-5.66615 -3.00921,-5.96122 c -5.3962,-10.6898 -5.40751,-17.12951 -0.035,-19.90775 2.54783,-1.31754 3.88374,-1.41073 7.42833,-0.51819 2.37701,0.59854 4.57256,1.08825 4.87901,1.08825 0.30645,0 0.55718,-20.72235 0.55718,-46.04966 0,-49.95023 0.034,-50.2779 5.47206,-52.75566 1.97564,-0.90016 26.67142,-1.19468 100.17499,-1.19468 l 97.55295,0 3.4,3.4 3.4,3.4 0,66.6 c 0,41.54342 0.35854,66.6 0.953,66.6 0.52414,0 1.40257,-1.62822 1.95205,-3.61828 1.39258,-5.04352 3.8047,-7.38172 7.61508,-7.38172 7.18968,0 11.02662,7.31913 10.32696,19.69914 -0.25073,4.43636 -1.14703,8.26402 -2.578,11.00927 -1.96174,3.76353 -2.04742,4.49025 -0.81049,6.87442 0.76073,1.46631 1.12535,3.39752 0.81027,4.29159 -0.87215,2.47483 -3.41858,5.12558 -4.92386,5.12558 -1.99621,0 -1.66757,1.45875 1.65499,7.34601 1.65,2.92363 3,6.23672 3,7.3624 0,1.12569 0.675,2.6069 1.5,3.29159 2.61587,2.17098 1.87758,6.75338 -1.35761,8.42637 -7.00108,3.62039 -35.36346,7.55361 -68.85374,9.54844 -19.8404,1.18179 -91.3678,1.12662 -111.28865,-0.0858 z m 94.5,-44.07778 c -15.83323,-8.05368 -25.98013,-10.9932 -42.5,-12.31205 -9.14613,-0.73018 -22.29124,0.64676 -29.92677,3.1348 -4.72157,1.53853 -25.83906,11.87049 -27.52323,13.46604 -0.56357,0.53391 21.60524,0.87922 54.5,0.8489 l 55.45,-0.0511 -10,-5.08658 z m 82.5,-23.58869 c 0,-3.94286 -2.67366,-9.00097 -3.99444,-7.55678 -0.41964,0.45885 -1.05635,2.48659 -1.41492,4.5061 -0.54914,3.09284 -0.29665,3.92068 1.60122,5.25 3.28455,2.30059 3.80814,1.9982 3.80814,-2.19932 z M 156.88594,242.33169 c 0.008,-0.59922 -1.14156,-1.6166 -2.55552,-2.26084 -2.41075,-1.09841 -2.52766,-1.03058 -1.87761,1.08949 1.11676,3.64216 2.60632,5.11652 3.59486,3.55816 0.45262,-0.71353 0.82985,-1.7876 0.83827,-2.38681 z m 29.22905,-1.39985 c -0.32815,-3.99989 -4.64092,-14.01067 -6.03597,-14.01067 -2.06139,0 -3.43275,3.30737 -3.92762,9.47238 -0.49207,6.13026 -0.38823,6.54631 1.86438,7.46988 1.31201,0.53793 3.73547,0.88348 5.38547,0.76789 2.7817,-0.19486 2.97917,-0.46406 2.71374,-3.69948 z"
         id="path3217"
         inkscape:connector-curvature="0" />
      <path
         style="fill:#d0c8b8"
         d="m 214.40125,339.82812 c -40.64015,-2.15787 -70.68893,-6.81489 -74.63258,-11.5667 -0.90893,-1.0952 -0.69492,-1.89496 0.98581,-3.68402 2.69303,-2.8666 2.74736,-5.33083 0.1358,-6.15971 -6.39973,-2.0312 -6.58301,-15.79042 -0.32094,-24.09335 1.98326,-2.62962 2.23724,-3.81468 1.68347,-7.8549 -0.62268,-4.54297 -0.48714,-4.90925 2.99814,-8.10219 3.34263,-3.06226 3.6503,-3.8023 3.6503,-8.78026 0,-2.98988 0.70876,-7.63071 1.57503,-10.31294 l 1.57503,-4.87679 -3.57503,-7.45984 c -3.39799,-7.09041 -4.48153,-13.11278 -2.80972,-15.61655 2.15478,-3.22707 8.0013,-3.96143 13.8057,-1.73408 1.22584,0.4704 1.42921,-5.97098 1.43054,-45.30863 10e-4,-41.66001 0.16158,-46.17605 1.75,-49.34308 0.96165,-1.91735 2.87345,-4.04821 4.24845,-4.73526 1.94626,-0.97248 23.7155,-1.25243 98.28212,-1.26391 81.85456,-0.0126 96.29161,0.19814 99.28599,1.44927 6.58261,2.75039 6.43189,1.01434 6.43189,74.0872 0,51.94948 0.25961,65.52892 1.24649,65.19996 0.68557,-0.22852 1.9372,-2.40352 2.78138,-4.83333 4.41096,-12.69597 16.88985,-5.19918 16.95017,10.18294 0.0255,6.51675 -1.42677,11.48357 -4.28017,14.63782 -1.98587,2.19526 -1.98945,2.30478 -0.18478,5.65585 1.74053,3.23196 1.74815,3.55791 0.14056,6.0114 -0.93487,1.42678 -2.33782,2.59415 -3.11769,2.59415 -2.75873,0 -2.54253,1.95888 0.94088,8.52503 1.93774,3.65259 3.52316,7.51783 3.52316,8.58941 0,1.07158 0.675,2.20735 1.5,2.52393 0.82967,0.31838 1.5,1.80336 1.5,3.32295 0,2.55369 -0.51101,2.89307 -7.25,4.81498 -12.98458,3.70311 -36.53441,6.4589 -70.25,8.22062 -21.76559,1.1373 -77.83631,1.08686 -100,-0.09 z M 151.2908,302.80695 c 1.16075,-0.0628 46.88545,-0.20725 101.61045,-0.32095 94.44052,-0.19621 106.6686,-0.50661 124.75,-3.16667 2.3375,-0.34389 4.25,-0.92713 4.25,-1.2961 0,-1.35048 -6.31983,-4.34211 -16.20587,-7.67139 -7.75897,-2.61296 -12.72387,-5.15578 -21.21207,-10.86395 -12.2845,-8.26114 -24.39987,-17.92836 -25.2522,-20.14951 -0.63276,-1.64894 1.32298,-4.41721 3.12069,-4.41721 0.66312,0 6.28521,3.80615 12.49354,8.45811 17.38804,13.02902 22.64814,16.10576 34.88452,20.40468 10.91149,3.83346 11.39491,3.91369 13.12966,2.17894 0.99058,-0.99058 2.55598,-4.07392 3.47866,-6.85185 1.83602,-5.52775 0.98704,-11.7632 -1.93137,-14.18527 -1.82868,-1.51766 -4.50556,-0.61835 -4.50556,1.51367 0,2.16628 -2.95733,7.71461 -4.90368,9.19992 -2.43526,1.85841 -8.21751,1.50528 -11.87597,-0.72527 -4.60295,-2.80641 -10.7368,-9.15349 -17.87164,-18.49293 -8.34698,-10.9261 -19.13842,-21.10548 -29.60955,-27.93017 -8.72805,-5.68861 -20.86546,-11.81047 -25.94195,-13.08459 -2.48443,-0.62355 -2.74826,-0.36792 -3.79001,3.67228 -2.06174,7.99594 -3.10804,10.70096 -5.13671,13.28 -2.54768,3.23885 -4.37792,3.24388 -6.4917,0.0178 -1.37416,-2.09723 -1.56891,-4.19402 -1.10764,-11.92547 0.60069,-10.06838 0.3943,-10.52985 -4.70934,-10.52985 -2.09509,0 -2.32774,0.57219 -2.94773,7.25 -0.9168,9.87471 -2.30023,14.51166 -4.7151,15.80407 -5.14315,2.75253 -8.89898,-4.888 -8.89898,-18.10329 l 0,-5.95078 -3.95132,0 -3.95132,0 0.57621,8.25 c 0.88341,12.64843 -3.00589,19.5224 -7.92122,14 -2.05621,-2.31017 -4.75235,-11.6322 -4.75235,-16.4315 0,-4.62371 -0.68187,-4.71982 -12.82782,-1.80804 -7.35952,1.76432 -23.17218,7.58472 -23.17218,8.52934 0,0.19423 2.24994,3.86474 4.99986,8.15668 5.42525,8.46743 5.7345,9.44916 3.54813,11.26369 -2.52897,2.09886 -5.08467,0.21915 -9.82354,-7.22518 -5.92733,-9.31128 -11.38773,-14.92609 -14.13378,-14.53343 -2.88933,0.41315 -6.3745,9.55764 -7.21839,18.93981 -0.87456,9.72316 -1.72823,11.85863 -4.74054,11.85863 -1.37752,0 -2.70965,-0.75294 -3.09617,-1.75 -0.63224,-1.63089 -0.77564,-1.61789 -2.10699,0.19113 -0.78572,1.06762 -1.42858,2.25264 -1.42858,2.63337 0,0.97931 4.07759,2.15908 6.75373,1.95405 1.26596,-0.097 2.52267,0.52816 2.86733,1.42634 0.6502,1.69439 -3.64034,8.89052 -6.93663,11.63416 -1.85777,1.5463 -1.83523,1.64717 0.83808,3.75 4.81221,3.78528 11.379,2.68066 16.06186,-2.70182 1.87804,-2.15861 2.62304,-2.43721 4.10504,-1.5351 4.06978,2.47732 1.48729,8.70377 -5.00176,12.05939 -4.25187,2.19873 -12.30252,2.14941 -16.9817,-0.10404 -4.42022,-2.12873 -7.49483,-7.06464 -5.94573,-9.54514 0.69973,-1.12045 0.63093,-2.1245 -0.22587,-3.29625 -1.80256,-2.46515 -2.53435,-1.0557 -2.53435,4.88124 0,3.7553 0.63158,6.21533 2.20366,8.58333 l 2.20366,3.31934 12.04634,-0.31594 c 10.54213,-0.2765 12.69397,-0.63629 17.2328,-2.88138 5.81476,-2.87621 8.31354,-2.54623 8.31354,1.09784 0,5.66722 -10.45925,9.59948 -25.5332,9.59948 -11.22156,0 -16.64816,1.37547 -22.23327,5.63545 -4.02218,3.06786 -7.22456,7.97762 -7.22979,11.08441 l -0.004,2.21987 3.63955,-2.46987 c 2.00175,-1.35842 4.58925,-2.52126 5.75,-2.58408 z m 7.60312,-60.02828 c 3.48622,-5.66584 3.34286,-6.04178 -2.99267,-7.84834 -4.66004,-1.32879 -4.76973,-1.31003 -5.48319,0.93788 -0.64187,2.02234 3.1202,12.05296 4.52056,12.05296 0.43509,0 2.21498,-2.31413 3.9553,-5.1425 z"
         id="path3215"
         inkscape:connector-curvature="0" />
      <path
         style="fill:#b3c3d6"
         d="m 233.90125,339.86255 c -29.8692,-0.82532 -48.98014,-2.37078 -80.98717,-6.54926 -4.21376,-0.5501 -13.05099,-4.79623 -12.98103,-6.23714 0.0175,-0.36024 0.6925,-1.52849 1.5,-2.59611 2.14703,-2.83862 1.85363,-3.97344 -2.0318,-7.85887 -2.99254,-2.99254 -3.5,-4.1716 -3.5,-8.13212 0,-5.35399 1.90896,-10.48254 5.48273,-14.72972 1.95509,-2.3235 2.28977,-3.39472 1.51368,-4.84487 -1.9585,-3.65949 -1.1331,-7.04294 2.50359,-10.26262 3.02251,-2.67593 3.5,-3.71264 3.5,-7.59906 0,-2.47522 0.72682,-7.09076 1.61515,-10.25676 l 1.61515,-5.75636 -3.61515,-8.41695 c -4.02652,-9.37473 -4.37902,-12.16594 -1.97067,-15.60435 1.50832,-2.15343 2.17069,-2.30558 8,-1.83766 l 6.35552,0.51016 0.002,-45.63484 c 10e-4,-41.44852 0.16195,-45.95465 1.75,-49.12094 0.9616,-1.91735 2.8734,-4.04821 4.2484,-4.73526 1.94626,-0.97248 23.7155,-1.25243 98.28212,-1.26391 81.85456,-0.0126 96.29161,0.19814 99.28599,1.44927 6.5861,2.75185 6.43189,0.96359 6.43189,74.5872 0,52.44429 0.25847,66.03071 1.25,65.7056 0.6875,-0.22542 1.83387,-2.1636 2.54748,-4.30706 1.71508,-5.15151 3.92714,-7.44975 7.17042,-7.44975 3.0254,0 7.33727,3.99774 8.96848,8.3151 2.47241,6.54376 0.6371,18.18376 -3.60641,22.87278 -1.34671,1.48809 -1.40074,2.22706 -0.34858,4.76719 1.69293,4.0871 0.60238,7.86031 -2.49662,8.63811 -1.36662,0.343 -2.48477,1.01839 -2.48477,1.50086 0,0.48248 1.575,3.84607 3.5,7.47465 1.925,3.62858 3.5,7.43768 3.5,8.46467 0,1.02699 0.71571,2.26779 1.59047,2.75733 1.69483,0.94847 1.62234,5.24034 -0.0905,5.35614 -0.55,0.0372 -2.71416,0.9421 -4.80924,2.01093 -3.71568,1.8956 -6.25306,2.30253 -33.19076,5.32288 -28.87554,3.23764 -76.37251,4.62477 -118.5,3.46074 z m -90.37926,-31.39543 c 0.30689,-0.79973 2.65526,-2.47282 5.21862,-3.71798 4.58588,-2.22762 5.11782,-2.25643 33.16064,-1.79595 87.85763,1.44266 178.82811,0.11147 196.41787,-2.87423 8.2624,-1.40246 4.20399,-4.92796 -11.99831,-10.42283 -10.60477,-3.59651 -18.19282,-8.01695 -33.75556,-19.66439 -10.76852,-8.05936 -13.1166,-10.44874 -12.31667,-12.53332 0.98666,-2.57118 3.14503,-1.77366 10.30043,3.80604 16.40784,12.79463 26.51409,18.98489 37.27515,22.83168 5.8174,2.07956 11.57922,3.79092 12.80404,3.80303 6.33361,0.0626 9.59787,-17.65318 4.23995,-23.0111 -2.46059,-2.46059 -4.66903,-1.59959 -5.49051,2.14059 -0.3552,1.61723 -1.7727,4.27964 -3.15,5.91646 -2.84097,3.3763 -7.48781,3.98043 -12.12605,1.5765 -3.39491,-1.75953 -13.48575,-12.2821 -19.06246,-19.87803 -8.74654,-11.91352 -20.54799,-22.20146 -35.4537,-30.90687 -6.83063,-3.9893 -19.94873,-9.81555 -22.10023,-9.81555 -0.62754,0 -1.92626,3.0484 -2.88606,6.77423 -3.33666,12.95258 -7.87242,16.74392 -10.48651,8.76543 -1.00935,-3.08063 -1.04589,-5.53433 -0.16864,-11.32164 0.616,-4.06374 0.91133,-7.59728 0.6563,-7.85231 -0.25503,-0.25503 -2.42894,-0.55415 -4.83091,-0.6647 l -4.36723,-0.20101 -0.63316,7.07776 c -0.87812,9.81591 -1.6855,12.94734 -3.84123,14.89825 -1.45114,1.31326 -2.30328,1.44623 -3.8756,0.60476 -2.68419,-1.43654 -3.36877,-3.89215 -4.06482,-14.58077 l -0.58609,-9 -4.5,0 -4.5,0 0.35055,9.51505 c 0.30418,8.25675 0.0934,9.83265 -1.59425,11.91676 -3.87718,4.78811 -7.22372,0.20592 -9.37841,-12.8412 -0.88493,-5.35842 -1.5627,-7.0889 -2.77444,-7.0836 -5.71199,0.025 -33.21866,8.75235 -34.59276,10.97569 -0.28947,0.46838 1.78041,4.47568 4.59974,8.90512 4.87167,7.65385 5.70912,11.13317 2.67095,11.09687 -2.07851,-0.0248 -2.98698,-1.04385 -9.12625,-10.23674 -10.82512,-16.20941 -15.10106,-16.82667 -19.03574,-2.74795 -0.84542,3.025 -1.83927,8.425 -2.20856,12 -0.36929,3.575 -1.1179,7.0625 -1.66358,7.75 -1.5238,1.91984 -3.72393,1.48725 -4.60937,-0.9063 -0.7661,-2.07096 -0.89899,-2.02149 -3.35791,1.25 -5.04301,6.70951 -7.99737,13.74554 -8.52343,20.29916 -0.44466,5.53952 -0.20779,6.77577 1.86365,9.72662 1.30518,1.85929 2.46173,3.54268 2.57012,3.74087 0.10838,0.1982 5.73491,0.30084 12.50338,0.22809 10.97874,-0.118 12.82868,-0.39959 17.1486,-2.61035 2.66325,-1.36295 5.42761,-2.47809 6.14301,-2.47809 2.55843,0 2.52158,3.08912 -0.0654,5.48671 -4.18426,3.87783 -10.68554,5.51329 -21.91649,5.51329 -6.03335,0 -12.15539,0.5984 -15.11554,1.47747 -8.81013,2.61633 -16.38782,10.93505 -16.38782,17.99041 0,2.73766 1.71342,3.4425 2.62074,1.07807 z m 22.98358,-30.58438 c -3.6876,-1.10351 -8.60432,-5.77778 -8.60432,-8.18005 0,-3.01414 2.87177,-3.27304 5.8097,-0.52376 5.29789,4.9577 12.45491,4.76568 17.22991,-0.46227 3.09102,-3.38424 5.96039,-3.26387 5.96039,0.25005 0,2.98748 -4.95961,7.57212 -9.5788,8.85461 -4.52626,1.25669 -6.77987,1.26948 -10.81688,0.0614 z m -9.07093,-14.85637 c -0.91193,-2.87324 2.32014,-10.1052 4.51617,-10.1052 1.00783,0 2.10141,0.43526 2.4302,0.96725 0.32878,0.53198 1.93034,0.70073 3.55901,0.375 3.7034,-0.74068 3.73806,0.25444 0.21123,6.06434 -2.45213,4.0395 -3.14888,4.53362 -6.43261,4.5618 -2.7532,0.0236 -3.83439,-0.4466 -4.284,-1.86319 z m 1.95545,-20.22255 c 4.1214,-5.73669 3.92584,-6.3621 -2.59274,-8.29188 -5.56283,-1.64684 -6.8961,-1.15724 -6.8961,2.5324 0,3.19429 3.47971,10.87683 4.92652,10.87683 0.48723,0 2.54027,-2.30281 4.56232,-5.11735 z"
         id="path3213"
         inkscape:connector-curvature="0" />
      <path
         style="fill:#a7b9cf"
         d="m 233.40125,339.85818 c -41.28575,-1.17483 -80.8587,-5.52855 -89.27395,-9.82169 -2.32433,-1.18578 -4.22605,-2.39004 -4.22605,-2.67614 0,-0.28609 0.95751,-1.81526 2.12779,-3.39816 l 2.1278,-2.878 -4.1278,-3.92667 c -3.6914,-3.51155 -4.12779,-4.42219 -4.12779,-8.61363 0,-5.40523 1.89868,-10.52517 5.48273,-14.78456 1.95509,-2.3235 2.28977,-3.39472 1.51368,-4.84487 -1.9585,-3.65949 -1.1331,-7.04294 2.50359,-10.26262 3.02251,-2.67593 3.5,-3.71264 3.5,-7.59906 0,-2.47522 0.72682,-7.09076 1.61515,-10.25676 l 1.61515,-5.75636 -3.61515,-8.41695 c -4.01836,-9.35573 -4.37801,-12.1674 -1.99206,-15.57381 1.46913,-2.09748 2.25166,-2.28458 8.25,-1.97251 l 6.62691,0.34478 0.5,-47.33723 0.5,-47.33723 2.80576,-2.41277 2.80577,-2.41277 97.88847,0 97.88847,0 2.80577,2.41307 2.80576,2.41307 0.5,67.83693 c 0.43724,59.32205 0.68773,67.83693 1.99564,67.83693 0.85819,0 2.05049,-1.69363 2.79748,-3.97373 1.70862,-5.21536 3.9116,-7.52627 7.17478,-7.52627 3.0254,0 7.33727,3.99774 8.96848,8.3151 2.47241,6.54376 0.6371,18.18376 -3.60641,22.87278 -1.34671,1.48809 -1.40074,2.22706 -0.34858,4.76719 1.76414,4.25901 0.6348,7.63448 -2.97536,8.89298 -1.65332,0.57635 -3.00603,1.27378 -3.00603,1.54985 0,0.27607 1.57384,3.11198 3.49743,6.30202 1.92359,3.19004 3.49859,6.55078 3.5,7.46829 0.004,2.78797 1.13622,4.83179 2.67598,4.83179 1.67597,0 1.50432,5.47732 -0.17341,5.53347 -0.55,0.0184 -3.025,0.79157 -5.5,1.71813 -10.41682,3.89975 -47.64355,7.45764 -91.5,8.74497 -18.15,0.53276 -33.225,0.90378 -33.5,0.82448 -0.275,-0.0793 -12.2,-0.47711 -26.5,-0.88404 z m 143.5,-21.93701 c 0,-0.66069 -37.83333,-1 -111.5,-1 -73.66667,0 -111.5,0.33931 -111.5,1 0,0.66069 37.83333,1 111.5,1 73.66667,0 111.5,-0.33931 111.5,-1 z m -233.37926,-9.45405 c 0.30689,-0.79973 2.65526,-2.47282 5.21862,-3.71798 4.58588,-2.22762 5.11782,-2.25643 33.16064,-1.79595 87.85763,1.44266 178.82811,0.11147 196.41787,-2.87423 8.2624,-1.40246 4.20399,-4.92796 -11.99831,-10.42283 -10.60477,-3.59651 -18.19282,-8.01695 -33.75556,-19.66439 -10.76852,-8.05936 -13.1166,-10.44874 -12.31667,-12.53332 0.98666,-2.57118 3.14503,-1.77366 10.30043,3.80604 16.40784,12.79463 26.51409,18.98489 37.27515,22.83168 5.8174,2.07956 11.57922,3.79092 12.80404,3.80303 6.33361,0.0626 9.59787,-17.65318 4.23995,-23.0111 -2.46059,-2.46059 -4.66903,-1.59959 -5.49051,2.14059 -0.3552,1.61723 -1.7727,4.27964 -3.15,5.91646 -2.84097,3.3763 -7.48781,3.98043 -12.12605,1.5765 -3.39491,-1.75953 -13.48575,-12.2821 -19.06246,-19.87803 -8.74654,-11.91352 -20.54799,-22.20146 -35.4537,-30.90687 -6.83063,-3.9893 -19.94873,-9.81555 -22.10023,-9.81555 -0.62754,0 -1.92626,3.0484 -2.88606,6.77423 -3.33666,12.95258 -7.87242,16.74392 -10.48651,8.76543 -1.00935,-3.08063 -1.04589,-5.53433 -0.16864,-11.32164 0.616,-4.06374 0.91133,-7.59728 0.6563,-7.85231 -0.25503,-0.25503 -2.42894,-0.55415 -4.83091,-0.6647 l -4.36723,-0.20101 -0.63316,7.07776 c -0.87812,9.81591 -1.6855,12.94734 -3.84123,14.89825 -1.45114,1.31326 -2.30328,1.44623 -3.8756,0.60476 -2.68419,-1.43654 -3.36877,-3.89215 -4.06482,-14.58077 l -0.58609,-9 -4.5,0 -4.5,0 0.35055,9.51505 c 0.30418,8.25675 0.0934,9.83265 -1.59425,11.91676 -3.87718,4.78811 -7.22372,0.20592 -9.37841,-12.8412 -0.88493,-5.35842 -1.5627,-7.0889 -2.77444,-7.0836 -5.71199,0.025 -33.21866,8.75235 -34.59276,10.97569 -0.28947,0.46838 1.78041,4.47568 4.59974,8.90512 4.87167,7.65385 5.70912,11.13317 2.67095,11.09687 -2.07851,-0.0248 -2.98698,-1.04385 -9.12625,-10.23674 -10.82512,-16.20941 -15.10106,-16.82667 -19.03574,-2.74795 -0.84542,3.025 -1.83927,8.425 -2.20856,12 -0.36929,3.575 -1.1179,7.0625 -1.66358,7.75 -1.5238,1.91984 -3.72393,1.48725 -4.60937,-0.9063 -0.7661,-2.07096 -0.89899,-2.02149 -3.35791,1.25 -5.04301,6.70951 -7.99737,13.74554 -8.52343,20.29916 -0.44466,5.53952 -0.20779,6.77577 1.86365,9.72662 1.30518,1.85929 2.46173,3.54268 2.57012,3.74087 0.10838,0.1982 5.73491,0.30084 12.50338,0.22809 10.97874,-0.118 12.82868,-0.39959 17.1486,-2.61035 2.66325,-1.36295 5.42761,-2.47809 6.14301,-2.47809 2.55843,0 2.52158,3.08912 -0.0654,5.48671 -4.18426,3.87783 -10.68554,5.51329 -21.91649,5.51329 -6.03335,0 -12.15539,0.5984 -15.11554,1.47747 -8.81013,2.61633 -16.38782,10.93505 -16.38782,17.99041 0,2.73766 1.71342,3.4425 2.62074,1.07807 z m 22.98358,-30.58438 c -3.6876,-1.10351 -8.60432,-5.77778 -8.60432,-8.18005 0,-3.01414 2.87177,-3.27304 5.8097,-0.52376 5.29789,4.9577 12.45491,4.76568 17.22991,-0.46227 3.09102,-3.38424 5.96039,-3.26387 5.96039,0.25005 0,2.98748 -4.95961,7.57212 -9.5788,8.85461 -4.52626,1.25669 -6.77987,1.26948 -10.81688,0.0614 z m -9.07093,-14.85637 c -0.91193,-2.87324 2.32014,-10.1052 4.51617,-10.1052 1.00783,0 2.10141,0.43526 2.4302,0.96725 0.32878,0.53198 1.93034,0.70073 3.55901,0.375 3.7034,-0.74068 3.73806,0.25444 0.21123,6.06434 -2.45213,4.0395 -3.14888,4.53362 -6.43261,4.5618 -2.7532,0.0236 -3.83439,-0.4466 -4.284,-1.86319 z m 1.95545,-20.22255 c 4.1214,-5.73669 3.92584,-6.3621 -2.59274,-8.29188 -5.56283,-1.64684 -6.8961,-1.15724 -6.8961,2.5324 0,3.19429 3.47971,10.87683 4.92652,10.87683 0.48723,0 2.54027,-2.30281 4.56232,-5.11735 z M 264.90125,137.92117 c 0,-0.65231 -16.14699,-1 -46.44098,-1 -29.88197,0 -46.66135,0.35656 -47.05902,1 -0.40868,0.66126 15.32295,1 46.44098,1 30.70601,0 47.05902,-0.3475 47.05902,-1 z m 94.5,0 c -0.84963,-1.37474 -86.5,-1.37474 -86.5,0 0,0.65136 15.18634,1 43.55902,1 28.7847,0 43.34939,-0.33918 42.94098,-1 z"
         id="path3211"
         inkscape:connector-curvature="0" />
      <path
         style="fill:#c4b9aa"
         d="m 233.40125,339.85818 c -41.28575,-1.17483 -80.8587,-5.52855 -89.27395,-9.82169 -4.78607,-2.44167 -5.03606,-3.07229 -2.22605,-5.61532 2.7335,-2.47378 2.58446,-3.02413 -2,-7.38522 -3.55648,-3.38319 -4,-4.3248 -4,-8.49206 0,-5.40523 1.89868,-10.52517 5.48273,-14.78456 1.95509,-2.3235 2.28977,-3.39472 1.51368,-4.84487 -1.9585,-3.65949 -1.1331,-7.04294 2.50359,-10.26262 3.02251,-2.67593 3.5,-3.71264 3.5,-7.59906 0,-2.47522 0.72682,-7.09076 1.61515,-10.25676 l 1.61515,-5.75636 -3.61515,-8.41695 c -4.02843,-9.37916 -4.37927,-12.1656 -1.96564,-15.61154 1.53745,-2.19502 2.1149,-2.31599 8.5,-1.78068 l 6.85049,0.57432 0,-45.99148 c 0,-50.06575 0.0812,-50.83195 5.613,-52.93512 1.53933,-0.58526 39.80464,-0.95704 98.50176,-0.95704 102.46771,0 100.16478,-0.10588 102.51406,4.71301 0.47915,0.98285 1.09618,31.93699 1.37118,68.78699 0.43716,58.5792 0.68798,67 1.99564,67 0.85819,0 2.05049,-1.69363 2.79748,-3.97373 1.70862,-5.21536 3.9116,-7.52627 7.17478,-7.52627 3.0254,0 7.33727,3.99774 8.96848,8.3151 2.47241,6.54376 0.6371,18.18376 -3.60641,22.87278 -1.34671,1.48809 -1.40074,2.22706 -0.34858,4.76719 1.76414,4.25901 0.6348,7.63448 -2.97536,8.89298 -1.65332,0.57635 -3.00603,1.28083 -3.00603,1.56551 0,0.28468 1.575,3.38296 3.5,6.88506 1.925,3.50211 3.5,7.38473 3.5,8.62805 0,1.43931 0.74614,2.45569 2.05381,2.79765 1.50769,0.39427 1.97303,1.20977 1.75,3.06688 -0.1671,1.39139 -0.97881,2.65976 -1.80381,2.81859 -0.825,0.15883 -3.3,0.9444 -5.5,1.74571 -10.50028,3.82453 -47.90079,7.37596 -91,8.64107 -18.15,0.53276 -33.225,0.90378 -33.5,0.82448 -0.275,-0.0793 -12.2,-0.47711 -26.5,-0.88404 z m 144,-21.93701 c 0,-1.32284 -13.16257,-1.53004 -111.44563,-1.75437 -66.63188,-0.15208 -111.81446,0.11446 -112.36287,0.66287 -0.50448,0.50448 -0.61369,1.40839 -0.24268,2.00869 0.48239,0.78053 32.49125,1.019 112.36287,0.83713 98.4988,-0.22429 111.68831,-0.43146 111.68831,-1.75432 z m -233.87926,-9.45405 c 0.30689,-0.79973 2.65526,-2.47282 5.21862,-3.71798 4.58588,-2.22762 5.11782,-2.25643 33.16064,-1.79595 87.85763,1.44266 178.82811,0.11147 196.41787,-2.87423 8.2624,-1.40246 4.20399,-4.92796 -11.99831,-10.42283 -10.60477,-3.59651 -18.19282,-8.01695 -33.75556,-19.66439 -10.76852,-8.05936 -13.1166,-10.44874 -12.31667,-12.53332 0.98666,-2.57118 3.14503,-1.77366 10.30043,3.80604 16.40784,12.79463 26.51409,18.98489 37.27515,22.83168 5.8174,2.07956 11.57922,3.79092 12.80404,3.80303 6.33361,0.0626 9.59787,-17.65318 4.23995,-23.0111 -2.46059,-2.46059 -4.66903,-1.59959 -5.49051,2.14059 -0.3552,1.61723 -1.7727,4.27964 -3.15,5.91646 -2.84097,3.3763 -7.48781,3.98043 -12.12605,1.5765 -3.39491,-1.75953 -13.48575,-12.2821 -19.06246,-19.87803 -8.74654,-11.91352 -20.54799,-22.20146 -35.4537,-30.90687 -6.83063,-3.9893 -19.94873,-9.81555 -22.10023,-9.81555 -0.62754,0 -1.92626,3.0484 -2.88606,6.77423 -3.33666,12.95258 -7.87242,16.74392 -10.48651,8.76543 -1.00935,-3.08063 -1.04589,-5.53433 -0.16864,-11.32164 0.616,-4.06374 0.91133,-7.59728 0.6563,-7.85231 -0.25503,-0.25503 -2.42894,-0.55415 -4.83091,-0.6647 l -4.36723,-0.20101 -0.63316,7.07776 c -0.87812,9.81591 -1.6855,12.94734 -3.84123,14.89825 -1.45114,1.31326 -2.30328,1.44623 -3.8756,0.60476 -2.68419,-1.43654 -3.36877,-3.89215 -4.06482,-14.58077 l -0.58609,-9 -4.5,0 -4.5,0 0.35055,9.51505 c 0.30418,8.25675 0.0934,9.83265 -1.59425,11.91676 -3.87718,4.78811 -7.22372,0.20592 -9.37841,-12.8412 -0.88493,-5.35842 -1.5627,-7.0889 -2.77444,-7.0836 -5.71199,0.025 -33.21866,8.75235 -34.59276,10.97569 -0.28947,0.46838 1.78041,4.47568 4.59974,8.90512 4.87167,7.65385 5.70912,11.13317 2.67095,11.09687 -2.07851,-0.0248 -2.98698,-1.04385 -9.12625,-10.23674 -10.82512,-16.20941 -15.10106,-16.82667 -19.03574,-2.74795 -0.84542,3.025 -1.83927,8.425 -2.20856,12 -0.36929,3.575 -1.1179,7.0625 -1.66358,7.75 -1.5238,1.91984 -3.72393,1.48725 -4.60937,-0.9063 -0.7661,-2.07096 -0.89899,-2.02149 -3.35791,1.25 -5.04301,6.70951 -7.99737,13.74554 -8.52343,20.29916 -0.44466,5.53952 -0.20779,6.77577 1.86365,9.72662 1.30518,1.85929 2.46173,3.54268 2.57012,3.74087 0.10838,0.1982 5.73491,0.30084 12.50338,0.22809 10.97874,-0.118 12.82868,-0.39959 17.1486,-2.61035 2.66325,-1.36295 5.42761,-2.47809 6.14301,-2.47809 2.55843,0 2.52158,3.08912 -0.0654,5.48671 -4.18426,3.87783 -10.68554,5.51329 -21.91649,5.51329 -6.03335,0 -12.15539,0.5984 -15.11554,1.47747 -8.81013,2.61633 -16.38782,10.93505 -16.38782,17.99041 0,2.73766 1.71342,3.4425 2.62074,1.07807 z m 22.98358,-30.58438 c -3.6876,-1.10351 -8.60432,-5.77778 -8.60432,-8.18005 0,-3.01414 2.87177,-3.27304 5.8097,-0.52376 5.29789,4.9577 12.45491,4.76568 17.22991,-0.46227 3.09102,-3.38424 5.96039,-3.26387 5.96039,0.25005 0,2.98748 -4.95961,7.57212 -9.5788,8.85461 -4.52626,1.25669 -6.77987,1.26948 -10.81688,0.0614 z m -9.07093,-14.85637 c -0.91193,-2.87324 2.32014,-10.1052 4.51617,-10.1052 1.00783,0 2.10141,0.43526 2.4302,0.96725 0.32878,0.53198 1.93034,0.70073 3.55901,0.375 3.7034,-0.74068 3.73806,0.25444 0.21123,6.06434 -2.45213,4.0395 -3.14888,4.53362 -6.43261,4.5618 -2.7532,0.0236 -3.83439,-0.4466 -4.284,-1.86319 z m 1.95545,-20.22255 c 4.1214,-5.73669 3.92584,-6.3621 -2.59274,-8.29188 -5.56283,-1.64684 -6.8961,-1.15724 -6.8961,2.5324 0,3.19429 3.47971,10.87683 4.92652,10.87683 0.48723,0 2.54027,-2.30281 4.56232,-5.11735 z M 265.90125,138.42117 c 1.10367,-1.32983 -4.27099,-1.5 -47.37756,-1.5 -42.55328,0 -48.62244,0.18723 -48.62244,1.5 0,1.31223 5.93084,1.5 47.37755,1.5 40.89344,0 47.54794,-0.20529 48.62245,-1.5 z m 95,0 c 0,-1.31117 -5.68027,-1.5 -45.12244,-1.5 -39.99546,0 -44.981,0.17044 -43.87756,1.5 1.07196,1.29163 7.34012,1.5 45.12244,1.5 38.33561,0 43.87756,-0.18946 43.87756,-1.5 z"
         id="path3209"
         inkscape:connector-curvature="0" />
      <path
         style="fill:#b4b2b0"
         d="m 233.40125,339.85818 c -41.28575,-1.17483 -80.8587,-5.52855 -89.27395,-9.82169 -4.78607,-2.44167 -5.03606,-3.07229 -2.22605,-5.61532 2.78887,-2.52389 2.53828,-3.54783 -1.74996,-7.1506 -3.6197,-3.0411 -3.74948,-3.37319 -3.73383,-9.55515 0.0147,-5.81797 0.36712,-6.89299 3.84758,-11.73754 3.33445,-4.64131 3.68901,-5.64541 2.73379,-7.7419 -1.80042,-3.95149 -1.28068,-6.01546 2.26432,-8.99201 3.01145,-2.52854 3.43062,-3.51957 4.0211,-9.50686 0.36255,-3.67623 1.30379,-8.51105 2.09163,-10.74404 1.39183,-3.94487 1.33087,-4.27389 -2.15028,-11.60419 -6.6638,-14.03207 -4.83902,-19.13222 6.42565,-17.9593 l 6.25,0.65078 0,-46.12926 c 0,-50.21611 0.0796,-50.96911 5.613,-53.07289 3.95235,-1.50269 193.59766,-1.27381 196.91494,0.23764 5.58251,2.54356 5.47206,1.07625 5.47206,72.69664 0,46.44112 0.32206,66.18969 1.08713,66.66253 1.53035,0.94581 3.08791,-0.89863 4.89891,-5.80122 2.89944,-7.84913 9.50576,-7.25514 14.23106,1.27955 1.53626,2.77475 1.83758,4.89783 1.50771,10.62296 -0.35117,6.09489 -0.87885,7.7896 -3.56109,11.43688 -2.92687,3.97992 -3.04363,4.44232 -1.65628,6.55968 2.43275,3.71284 1.84172,6.20974 -2.00744,8.4808 -1.925,1.13578 -3.5,2.23011 -3.5,2.43185 0,0.20174 1.575,3.23217 3.5,6.73427 1.925,3.50211 3.5,7.38473 3.5,8.62805 0,1.43931 0.74614,2.45569 2.05381,2.79765 1.50769,0.39427 1.97303,1.20977 1.75,3.06688 -0.1671,1.39139 -0.97881,2.65976 -1.80381,2.81859 -0.825,0.15883 -3.3,0.9444 -5.5,1.74571 -10.50028,3.82453 -47.90079,7.37596 -91,8.64107 -18.15,0.53276 -33.225,0.90378 -33.5,0.82448 -0.275,-0.0793 -12.2,-0.47711 -26.5,-0.88404 z m 144,-21.93701 c 0,-1.32284 -13.16257,-1.53004 -111.44563,-1.75437 -66.63188,-0.15208 -111.81446,0.11446 -112.36287,0.66287 -0.50448,0.50448 -0.61369,1.40839 -0.24268,2.00869 0.48239,0.78053 32.49125,1.019 112.36287,0.83713 98.4988,-0.22429 111.68831,-0.43146 111.68831,-1.75432 z m -225.7066,-13.58019 c 2.03863,-0.32447 50.0566,-0.68222 106.7066,-0.795 77.52467,-0.15434 105.3407,-0.52389 112.46375,-1.49414 10.05897,-1.37017 13.39849,-2.53355 12.76927,-4.44837 -0.64014,-1.94807 -7.65893,-5.45595 -17.54309,-8.76778 -6.51599,-2.18328 -12.36819,-5.13992 -19.5,-9.85178 -19.09327,-12.6146 -29.50857,-22.06274 -24.32118,-22.06274 0.75281,0 7.39031,4.49385 14.75,9.98632 7.35969,5.49248 15.85625,11.27933 18.88125,12.85966 7.32989,3.82931 24.45915,9.57554 26.36461,8.84435 3.04065,-1.16681 4.93911,-5.74107 5.39533,-12.99985 0.39466,-6.27941 0.1759,-7.53892 -1.72659,-9.94048 -3.16026,-3.98929 -5.72801,-3.59766 -6.98357,1.06513 -1.66362,6.17823 -5.35993,8.80447 -11.74278,8.34331 -3.05735,-0.22089 -13.39755,-10.06842 -20.61456,-19.63235 -7.97642,-10.57029 -18.30458,-20.47005 -28.29227,-27.11872 -9.30193,-6.19217 -26.13621,-14.44001 -30.0409,-14.71834 -2.44686,-0.17441 -2.75461,0.2548 -3.98012,5.55087 -1.6719,7.22525 -4.96031,13.7601 -6.92422,13.7601 -2.51473,0 -3.70594,-4.91949 -2.90571,-12 1.3349,-11.81125 1.47601,-11.30386 -3.41707,-12.28684 -2.77177,-0.55683 -4.73249,-0.51282 -5.36575,0.12044 -0.54884,0.54884 -1.39775,4.94276 -1.88645,9.76425 -1.90356,18.78018 -9.87995,17.67759 -9.87995,-1.36573 0,-8.71394 -0.8141,-10.24008 -5.45,-10.21681 -5.51217,0.0277 -5.9869,0.93433 -5.67347,10.8352 0.16658,5.26191 -0.17764,9.84361 -0.8313,11.06498 -2.82599,5.28042 -6.33558,0.16285 -8.51445,-12.41549 l -1.21256,-7 -3.7834,0.2345 c -8.26796,0.51245 -30.10192,7.52009 -33.37634,10.71218 -1.11746,1.08936 -0.67288,2.28864 2.6619,7.18055 4.65359,6.82654 6.76131,11.12441 5.88519,12.00053 -1.37235,1.37236 -3.74335,-0.83596 -8.05699,-7.50415 -5.48715,-8.48228 -11.92634,-15.12361 -14.66328,-15.12361 -3.93747,0 -7.25581,7.82105 -9.12209,21.5 -1.08708,7.96775 -2.29021,10.97216 -3.97652,9.92997 -0.48768,-0.3014 -0.88669,-1.42145 -0.88669,-2.48899 0,-3.31577 -2.36266,-2.14321 -5.66398,2.81095 -5.34637,8.02309 -7.39394,13.06248 -8.01656,19.72999 -0.55091,5.89951 -0.39158,6.64365 2.0415,9.53521 1.45147,1.72498 2.63904,3.54474 2.63904,4.04393 0,0.5096 5.81044,0.80484 13.25,0.67327 11.52977,-0.20391 13.80577,-0.52645 17.53079,-2.48433 2.35444,-1.2375 4.97494,-2.25 5.82333,-2.25 2.97555,0 0.87317,3.47351 -3.61524,5.97302 -3.95996,2.20523 -6.07958,2.56833 -17.98888,3.08162 -11.04135,0.47588 -14.45196,0.99982 -18.72705,2.87687 -7.19785,3.16035 -12.92197,9.54519 -13.79867,15.39142 -0.9853,6.57049 0.10412,7.41798 4.16312,3.23856 2.26494,-2.33213 4.72218,-3.75431 7.156,-4.14168 z m 14.20711,-27.48322 c -3.58484,-1.51559 -7.00051,-4.98512 -7.00051,-7.1109 0,-2.39602 2.2358,-2.3276 4.46593,0.13666 4.42891,4.8939 14.80435,4.60717 18.15175,-0.50161 2.08317,-3.17932 4.38232,-3.18542 4.38232,-0.0116 0,5.61596 -12.95454,10.46593 -19.99949,7.48748 z m -7.62791,-14.408 c -0.70085,-1.82638 2.75944,-9.14056 4.1274,-8.72429 0.55,0.16737 0.90621,1.47114 0.79157,2.89726 l -0.20842,2.59296 2.84873,-2.72926 c 3.93322,-3.76826 4.98252,-1.54541 1.64862,3.49246 -2.0794,3.14219 -3.22122,3.94228 -5.62607,3.94228 -1.73341,0 -3.25745,-0.62607 -3.58183,-1.47141 z m 1.58255,-19.08541 c 4.75014,-6.29152 4.48777,-7.63098 -1.86773,-9.53513 -5.25352,-1.574 -8.51805,-0.89662 -8.90781,1.84833 -0.36069,2.54024 4.20149,13.24362 5.64492,13.24362 0.51435,0 2.82313,-2.50057 5.13062,-5.55682 z M 265.90125,138.42117 c 1.10367,-1.32983 -4.27099,-1.5 -47.37756,-1.5 -42.55328,0 -48.62244,0.18723 -48.62244,1.5 0,1.31223 5.93084,1.5 47.37755,1.5 40.89344,0 47.54794,-0.20529 48.62245,-1.5 z m 95,0 c 0,-1.31117 -5.68027,-1.5 -45.12244,-1.5 -39.99546,0 -44.981,0.17044 -43.87756,1.5 1.07196,1.29163 7.34012,1.5 45.12244,1.5 38.33561,0 43.87756,-0.18946 43.87756,-1.5 z"
         id="path3207"
         inkscape:connector-curvature="0" />
      <path
         style="fill:#94a9c5"
         d="m 150.23391,332.22627 c -1.19203,-0.2324 -3.36687,-1.53423 -4.83297,-2.89297 -2.31241,-2.14307 -2.57874,-2.98475 -2.00988,-6.35183 0.59989,-3.55068 0.41774,-3.99553 -2.13776,-5.22085 -6.6518,-3.18944 -7.03246,-13.36965 -0.82311,-22.01262 3.18114,-4.42792 3.521,-5.42182 2.56864,-7.51202 -1.80222,-3.95543 -1.27979,-6.01687 2.27884,-8.99201 3.0387,-2.54045 3.4483,-3.5123 4.09495,-9.71619 0.39519,-3.79136 1.3268,-8.61743 2.07025,-10.72458 1.28433,-3.64018 1.17988,-4.20314 -2.09495,-11.29107 -5.75894,-12.46449 -4.09448,-19.57113 4.28089,-18.27776 2.07484,0.32041 4.78494,0.8835 6.02244,1.25131 l 2.25,0.66875 0,-46.66629 c 0,-50.80226 0.0735,-51.5038 5.613,-53.60993 1.53933,-0.58526 39.80464,-0.95704 98.50176,-0.95704 104.26072,0 100.09621,-0.22191 102.69055,5.47206 0.888,1.94894 1.19469,19.69992 1.19469,69.14832 0,61.1694 0.13228,66.50023 1.64282,66.20294 1.81222,-0.35666 2.60131,-1.52162 4.76704,-7.03773 2.71333,-6.91086 9.33354,-5.83367 13.80724,2.24659 1.54388,2.78852 1.83774,4.89255 1.50014,10.74105 -0.36896,6.39161 -0.81524,7.76524 -3.68174,11.33222 l -3.26189,4.05898 1.74419,3.23876 c 2.09994,3.89936 0.86863,7.21073 -3.04666,8.19341 -3.1535,0.79148 -3.11266,1.29699 0.64233,7.95046 4.31571,7.64702 5.42037,12.98924 3.34187,16.16145 -3.60108,5.49593 0.95874,5.30273 -121.67322,5.15531 -62.30517,-0.0749 -114.25742,-0.32633 -115.44946,-0.55872 z m 227.16734,-14.3051 c 0,-1.32284 -13.16257,-1.53004 -111.44563,-1.75437 -66.63188,-0.15208 -111.81446,0.11446 -112.36287,0.66287 -0.50448,0.50448 -0.61369,1.40839 -0.24268,2.00869 0.48239,0.78053 32.49125,1.019 112.36287,0.83713 98.4988,-0.22429 111.68831,-0.43146 111.68831,-1.75432 z m -225.7066,-13.58019 c 2.03863,-0.32447 50.0566,-0.68222 106.7066,-0.795 77.52467,-0.15434 105.3407,-0.52389 112.46375,-1.49414 10.05897,-1.37017 13.39849,-2.53355 12.76927,-4.44837 -0.64014,-1.94807 -7.65893,-5.45595 -17.54309,-8.76778 -6.51599,-2.18328 -12.36819,-5.13992 -19.5,-9.85178 -19.09327,-12.6146 -29.50857,-22.06274 -24.32118,-22.06274 0.75281,0 7.39031,4.49385 14.75,9.98632 7.35969,5.49248 15.85625,11.27933 18.88125,12.85966 7.32989,3.82931 24.45915,9.57554 26.36461,8.84435 3.04065,-1.16681 4.93911,-5.74107 5.39533,-12.99985 0.39466,-6.27941 0.1759,-7.53892 -1.72659,-9.94048 -3.16026,-3.98929 -5.72801,-3.59766 -6.98357,1.06513 -1.66362,6.17823 -5.35993,8.80447 -11.74278,8.34331 -3.05735,-0.22089 -13.39755,-10.06842 -20.61456,-19.63235 -7.97642,-10.57029 -18.30458,-20.47005 -28.29227,-27.11872 -9.30193,-6.19217 -26.13621,-14.44001 -30.0409,-14.71834 -2.44686,-0.17441 -2.75461,0.2548 -3.98012,5.55087 -1.6719,7.22525 -4.96031,13.7601 -6.92422,13.7601 -2.51473,0 -3.70594,-4.91949 -2.90571,-12 1.3349,-11.81125 1.47601,-11.30386 -3.41707,-12.28684 -2.77177,-0.55683 -4.73249,-0.51282 -5.36575,0.12044 -0.54884,0.54884 -1.39775,4.94276 -1.88645,9.76425 -1.90356,18.78018 -9.87995,17.67759 -9.87995,-1.36573 0,-8.71394 -0.8141,-10.24008 -5.45,-10.21681 -5.51217,0.0277 -5.9869,0.93433 -5.67347,10.8352 0.16658,5.26191 -0.17764,9.84361 -0.8313,11.06498 -2.82599,5.28042 -6.33558,0.16285 -8.51445,-12.41549 l -1.21256,-7 -3.7834,0.2345 c -8.26796,0.51245 -30.10192,7.52009 -33.37634,10.71218 -1.11746,1.08936 -0.67288,2.28864 2.6619,7.18055 4.65359,6.82654 6.76131,11.12441 5.88519,12.00053 -1.37235,1.37236 -3.74335,-0.83596 -8.05699,-7.50415 -5.48715,-8.48228 -11.92634,-15.12361 -14.66328,-15.12361 -3.93747,0 -7.25581,7.82105 -9.12209,21.5 -1.08708,7.96775 -2.29021,10.97216 -3.97652,9.92997 -0.48768,-0.3014 -0.88669,-1.42145 -0.88669,-2.48899 0,-3.31577 -2.36266,-2.14321 -5.66398,2.81095 -5.34637,8.02309 -7.39394,13.06248 -8.01656,19.72999 -0.55091,5.89951 -0.39158,6.64365 2.0415,9.53521 1.45147,1.72498 2.63904,3.54474 2.63904,4.04393 0,0.5096 5.81044,0.80484 13.25,0.67327 11.52977,-0.20391 13.80577,-0.52645 17.53079,-2.48433 2.35444,-1.2375 4.97494,-2.25 5.82333,-2.25 2.97555,0 0.87317,3.47351 -3.61524,5.97302 -3.95996,2.20523 -6.07958,2.56833 -17.98888,3.08162 -11.04135,0.47588 -14.45196,0.99982 -18.72705,2.87687 -7.19785,3.16035 -12.92197,9.54519 -13.79867,15.39142 -0.9853,6.57049 0.10412,7.41798 4.16312,3.23856 2.26494,-2.33213 4.72218,-3.75431 7.156,-4.14168 z m 14.20711,-27.48322 c -3.58484,-1.51559 -7.00051,-4.98512 -7.00051,-7.1109 0,-2.39602 2.2358,-2.3276 4.46593,0.13666 4.42891,4.8939 14.80435,4.60717 18.15175,-0.50161 2.08317,-3.17932 4.38232,-3.18542 4.38232,-0.0116 0,5.61596 -12.95454,10.46593 -19.99949,7.48748 z m -7.62791,-14.408 c -0.70085,-1.82638 2.75944,-9.14056 4.1274,-8.72429 0.55,0.16737 0.90621,1.47114 0.79157,2.89726 l -0.20842,2.59296 2.84873,-2.72926 c 3.93322,-3.76826 4.98252,-1.54541 1.64862,3.49246 -2.0794,3.14219 -3.22122,3.94228 -5.62607,3.94228 -1.73341,0 -3.25745,-0.62607 -3.58183,-1.47141 z m 1.58255,-19.08541 c 4.75014,-6.29152 4.48777,-7.63098 -1.86773,-9.53513 -5.25352,-1.574 -8.51805,-0.89662 -8.90781,1.84833 -0.36069,2.54024 4.20149,13.24362 5.64492,13.24362 0.51435,0 2.82313,-2.50057 5.13062,-5.55682 z M 265.90125,138.42117 c 1.10367,-1.32983 -4.27099,-1.5 -47.37756,-1.5 -42.55328,0 -48.62244,0.18723 -48.62244,1.5 0,1.31223 5.93084,1.5 47.37755,1.5 40.89344,0 47.54794,-0.20529 48.62245,-1.5 z m 95,0 c 0,-1.31117 -5.68027,-1.5 -45.12244,-1.5 -39.99546,0 -44.981,0.17044 -43.87756,1.5 1.07196,1.29163 7.34012,1.5 45.12244,1.5 38.33561,0 43.87756,-0.18946 43.87756,-1.5 z"
         id="path3205"
         inkscape:connector-curvature="0" />
      <path
         style="fill:#b2a795"
         d="m 149.41448,331.41372 c -5.22454,-1.86043 -6.63095,-3.90416 -5.88724,-8.55507 0.53779,-3.36314 0.32202,-3.85332 -2.23612,-5.0799 -6.68957,-3.20753 -7.08652,-13.36518 -0.86093,-22.03075 3.18114,-4.42792 3.521,-5.42182 2.56864,-7.51202 -1.80222,-3.95543 -1.27979,-6.01687 2.27884,-8.99201 3.0387,-2.54045 3.4483,-3.5123 4.09495,-9.71619 0.39519,-3.79136 1.3268,-8.61743 2.07025,-10.72458 1.28433,-3.64018 1.17988,-4.20314 -2.09495,-11.29107 -5.75894,-12.46449 -4.09448,-19.57113 4.28089,-18.27776 2.07484,0.32041 4.78494,0.8835 6.02244,1.25131 l 2.25,0.66875 0.006,-45.36663 c 0.004,-28.96487 0.39007,-46.75128 1.06906,-49.19651 1.96531,-7.07761 -3.49315,-6.74098 104.4173,-6.43956 l 96.4631,0.26944 2.77247,2.77225 2.77247,2.77225 0.27716,67.54584 c 0.25262,61.56295 0.42027,67.51767 1.89282,67.22775 1.78517,-0.35146 2.57949,-1.52998 4.73988,-7.0325 2.71333,-6.91086 9.33354,-5.83367 13.80724,2.24659 1.54388,2.78852 1.83774,4.89255 1.50014,10.74105 -0.36896,6.39161 -0.81524,7.76524 -3.68174,11.33222 l -3.26189,4.05898 1.74419,3.23876 c 2.09994,3.89936 0.86863,7.21073 -3.04666,8.19341 -3.20323,0.80396 -3.11518,2.32665 0.47159,8.1559 1.6185,2.63039 3.40659,6.79965 3.97353,9.26502 0.8765,3.81149 0.75878,4.85671 -0.7864,6.98248 -0.99945,1.375 -3.35004,3.0371 -5.22352,3.69356 -2.56052,0.89719 -31.34081,1.19667 -115.90634,1.2061 -94.6551,0.0106 -113.13239,-0.21264 -116.48677,-1.40711 z m 229.13003,-12.00528 c 0.31927,-0.83201 0.025,-2.18201 -0.65383,-3 -1.07894,-1.30005 -15.23934,-1.48727 -112.48943,-1.48727 -97.25009,0 -111.41049,0.18722 -112.48943,1.48727 -0.67888,0.81799 -0.9731,2.16799 -0.65383,3 0.51341,1.33791 13.5888,1.51273 113.14326,1.51273 99.55446,0 112.62985,-0.17482 113.14326,-1.51273 z m -205.64326,-7.48727 c 0,-0.55 -2.25,-1 -5,-1 -2.75,0 -5,0.45 -5,1 0,0.55 2.25,1 5,1 2.75,0 5,-0.45 5,-1 z m 16,0 c 0,-0.55 -2.25,-1 -5,-1 -2.75,0 -5,0.45 -5,1 0,0.55 2.25,1 5,1 2.75,0 5,-0.45 5,-1 z m 16,0 c 0,-0.55 -2.25,-1 -5,-1 -2.75,0 -5,0.45 -5,1 0,0.55 2.25,1 5,1 2.75,0 5,-0.45 5,-1 z m 16,0 c 0,-0.55 -2.25,-1 -5,-1 -2.75,0 -5,0.45 -5,1 0,0.55 2.25,1 5,1 2.75,0 5,-0.45 5,-1 z m 80,0 c 0,-0.64815 -12.66667,-1 -36,-1 -23.33333,0 -36,0.35185 -36,1 0,0.64815 12.66667,1 36,1 23.33333,0 36,-0.35185 36,-1 z m 18,0 c 0,-0.55 -2.25,-1 -5,-1 -2.75,0 -5,0.45 -5,1 0,0.55 2.25,1 5,1 2.75,0 5,-0.45 5,-1 z m 16,0 c 0,-0.55 -2.25,-1 -5,-1 -2.75,0 -5,0.45 -5,1 0,0.55 2.25,1 5,1 2.75,0 5,-0.45 5,-1 z m 16,0 c 0,-0.55 -2.25,-1 -5,-1 -2.75,0 -5,0.45 -5,1 0,0.55 2.25,1 5,1 2.75,0 5,-0.45 5,-1 z m 16,0 c 0,-0.55 -2.25,-1 -5,-1 -2.75,0 -5,0.45 -5,1 0,0.55 2.25,1 5,1 2.75,0 5,-0.45 5,-1 z m -215.2066,-7.58019 c 2.03863,-0.32447 50.0566,-0.68222 106.7066,-0.795 77.52467,-0.15434 105.3407,-0.52389 112.46375,-1.49414 10.05897,-1.37017 13.39849,-2.53355 12.76927,-4.44837 -0.64014,-1.94807 -7.65893,-5.45595 -17.54309,-8.76778 -6.51599,-2.18328 -12.36819,-5.13992 -19.5,-9.85178 -19.09327,-12.6146 -29.50857,-22.06274 -24.32118,-22.06274 0.75281,0 7.39031,4.49385 14.75,9.98632 7.35969,5.49248 15.85625,11.27933 18.88125,12.85966 7.32989,3.82931 24.45915,9.57554 26.36461,8.84435 3.04065,-1.16681 4.93911,-5.74107 5.39533,-12.99985 0.39466,-6.27941 0.1759,-7.53892 -1.72659,-9.94048 -3.16026,-3.98929 -5.72801,-3.59766 -6.98357,1.06513 -1.66362,6.17823 -5.35993,8.80447 -11.74278,8.34331 -3.05735,-0.22089 -13.39755,-10.06842 -20.61456,-19.63235 -7.97642,-10.57029 -18.30458,-20.47005 -28.29227,-27.11872 -9.30193,-6.19217 -26.13621,-14.44001 -30.0409,-14.71834 -2.44686,-0.17441 -2.75461,0.2548 -3.98012,5.55087 -1.6719,7.22525 -4.96031,13.7601 -6.92422,13.7601 -2.51473,0 -3.70594,-4.91949 -2.90571,-12 1.3349,-11.81125 1.47601,-11.30386 -3.41707,-12.28684 -2.77177,-0.55683 -4.73249,-0.51282 -5.36575,0.12044 -0.54884,0.54884 -1.39775,4.94276 -1.88645,9.76425 -1.90356,18.78018 -9.87995,17.67759 -9.87995,-1.36573 0,-8.71394 -0.8141,-10.24008 -5.45,-10.21681 -5.51217,0.0277 -5.9869,0.93433 -5.67347,10.8352 0.16658,5.26191 -0.17764,9.84361 -0.8313,11.06498 -2.82599,5.28042 -6.33558,0.16285 -8.51445,-12.41549 l -1.21256,-7 -3.7834,0.2345 c -8.26796,0.51245 -30.10192,7.52009 -33.37634,10.71218 -1.11746,1.08936 -0.67288,2.28864 2.6619,7.18055 4.65359,6.82654 6.76131,11.12441 5.88519,12.00053 -1.37235,1.37236 -3.74335,-0.83596 -8.05699,-7.50415 -5.48715,-8.48228 -11.92634,-15.12361 -14.66328,-15.12361 -3.93747,0 -7.25581,7.82105 -9.12209,21.5 -1.08708,7.96775 -2.29021,10.97216 -3.97652,9.92997 -0.48768,-0.3014 -0.88669,-1.42145 -0.88669,-2.48899 0,-3.31577 -2.36266,-2.14321 -5.66398,2.81095 -5.34637,8.02309 -7.39394,13.06248 -8.01656,19.72999 -0.55091,5.89951 -0.39158,6.64365 2.0415,9.53521 1.45147,1.72498 2.63904,3.54474 2.63904,4.04393 0,0.5096 5.81044,0.80484 13.25,0.67327 11.52977,-0.20391 13.80577,-0.52645 17.53079,-2.48433 2.35444,-1.2375 4.97494,-2.25 5.82333,-2.25 2.97555,0 0.87317,3.47351 -3.61524,5.97302 -3.95996,2.20523 -6.07958,2.56833 -17.98888,3.08162 -11.04135,0.47588 -14.45196,0.99982 -18.72705,2.87687 -7.19785,3.16035 -12.92197,9.54519 -13.79867,15.39142 -0.9853,6.57049 0.10412,7.41798 4.16312,3.23856 2.26494,-2.33213 4.72218,-3.75431 7.156,-4.14168 z m 14.20711,-27.48322 c -3.58484,-1.51559 -7.00051,-4.98512 -7.00051,-7.1109 0,-2.39602 2.2358,-2.3276 4.46593,0.13666 4.42891,4.8939 14.80435,4.60717 18.15175,-0.50161 2.08317,-3.17932 4.38232,-3.18542 4.38232,-0.0116 0,5.61596 -12.95454,10.46593 -19.99949,7.48748 z m -7.62791,-14.408 c -0.70085,-1.82638 2.75944,-9.14056 4.1274,-8.72429 0.55,0.16737 0.90621,1.47114 0.79157,2.89726 l -0.20842,2.59296 2.84873,-2.72926 c 3.93322,-3.76826 4.98252,-1.54541 1.64862,3.49246 -2.0794,3.14219 -3.22122,3.94228 -5.62607,3.94228 -1.73341,0 -3.25745,-0.62607 -3.58183,-1.47141 z m 1.58255,-19.08541 c 4.75014,-6.29152 4.48777,-7.63098 -1.86773,-9.53513 -5.25352,-1.574 -8.51805,-0.89662 -8.90781,1.84833 -0.36069,2.54024 4.20149,13.24362 5.64492,13.24362 0.51435,0 2.82313,-2.50057 5.13062,-5.55682 z m 110.81568,-98.25568 c 0.22111,-0.66333 -0.52375,-1.1875 -1.6875,-1.1875 -2.07732,0 -2.69993,1.05007 -1.39583,2.35417 0.92647,0.92647 2.59622,0.29467 3.08333,-1.16667 z m -4.77083,-5.6875 c 1.59486,-1.92169 4.40514,-1.92169 6,0 1.07198,1.29166 7.34361,1.5 45.15383,1.5 39.33794,0 43.97289,-0.16666 44.52327,-1.60093 0.33788,-0.8805 -0.0137,-1.99484 -0.78138,-2.4763 -0.77202,-0.4842 -43.46278,-0.88079 -95.5329,-0.88749 -80.86347,-0.0104 -94.30622,0.1916 -95.33609,1.43251 -0.6594,0.79453 -0.90861,1.91431 -0.5538,2.4884 0.43341,0.70128 16.17278,1.04381 47.96364,1.04381 40.84097,0 47.48896,-0.20534 48.56343,-1.5 z"
         id="path3203"
         inkscape:connector-curvature="0" />
      <path
         style="fill:#8da0ba"
         d="m 149.41448,331.41372 c -5.3637,-1.90999 -6.57031,-3.79693 -5.83913,-9.13148 0.45643,-3.33001 0.27008,-4.36894 -0.78818,-4.39434 -0.76225,-0.0183 -2.50342,-0.96295 -3.86925,-2.09923 -2.11298,-1.75785 -2.48334,-2.91703 -2.48334,-7.77252 0,-5.03017 0.45828,-6.34445 3.86641,-11.08831 3.56326,-4.9598 3.77757,-5.62743 2.73333,-8.51521 -1.77983,-4.92204 -1.40501,-6.17868 2.86693,-9.6117 3.60643,-2.89821 4.00235,-3.66538 4.02386,-7.79712 0.0131,-2.52045 0.49443,-6.38264 1.06957,-8.58264 0.57515,-2.2 1.28344,-4.96841 1.57399,-6.15201 0.31445,-1.28098 -0.75351,-4.83775 -2.63852,-8.78743 -3.78598,-7.93282 -4.67301,-12.48851 -3.02952,-15.55939 1.13632,-2.12324 1.67102,-2.23504 8.10858,-1.69534 l 6.89204,0.57781 0.006,-45.19182 c 0.004,-28.84137 0.39035,-46.57748 1.06906,-49.0217 1.96531,-7.07761 -3.49315,-6.74098 104.4173,-6.43956 l 96.4631,0.26944 2.77247,2.77226 2.77247,2.77225 0.27698,68.04587 c 0.25741,63.23768 0.3963,68.0229 1.96563,67.72067 0.92875,-0.17886 2.26661,-1.55952 2.97302,-3.06813 0.7064,-1.5086 1.86413,-3.98042 2.57271,-5.49292 1.02913,-2.19669 1.96267,-2.75 4.63975,-2.75 2.68088,0 3.97368,0.76884 6.46166,3.84282 2.83268,3.49987 3.11025,4.48156 3.11025,11 0,6.44806 -0.322,7.62088 -3.25,11.83736 -3.45473,4.97499 -3.90933,6.76049 -2.16534,8.50448 1.85943,1.85943 0.59487,5.71083 -2.33466,7.11054 -3.48085,1.66313 -3.45134,3.03494 0.19273,8.9573 1.6185,2.63039 3.40659,6.79965 3.97353,9.26502 0.8765,3.81149 0.75878,4.85671 -0.7864,6.98248 -0.99945,1.375 -3.35004,3.0371 -5.22352,3.69356 -2.56052,0.89719 -31.34081,1.19667 -115.90634,1.2061 -94.6551,0.0106 -113.13239,-0.21264 -116.48677,-1.40711 z m 229.13003,-12.00528 c 0.31927,-0.83201 0.025,-2.18201 -0.65383,-3 -1.07894,-1.30005 -15.23934,-1.48727 -112.48943,-1.48727 -97.25009,0 -111.41049,0.18722 -112.48943,1.48727 -0.67888,0.81799 -0.9731,2.16799 -0.65383,3 0.51341,1.33791 13.5888,1.51273 113.14326,1.51273 99.55446,0 112.62985,-0.17482 113.14326,-1.51273 z m -234.73388,-8.81795 c 0.68604,-1.28188 2.67458,-3.19438 4.41898,-4.25 3.075,-1.86084 5.86828,-1.9093 91.67164,-1.59061 101.94558,0.37866 138.75531,-0.89097 143.6519,-4.95477 3.27662,-2.71936 -2.52731,-6.67429 -16.86815,-11.49434 -10.74723,-3.61221 -22.46063,-10.66431 -37.29987,-22.45651 -6.92875,-5.50602 -8.91669,-7.92309 -6.51641,-7.92309 0.5321,0 5.60696,3.4875 11.27746,7.75 16.79531,12.62499 22.76313,16.07862 35.14259,20.33731 12.83461,4.41526 14.31939,4.31394 17.15561,-1.17072 3.80731,-7.36252 2.65101,-18.43283 -2.26151,-21.65164 -2.43318,-1.59428 -2.61852,-1.56712 -4.41076,0.64621 -1.02897,1.27072 -1.87086,3.0757 -1.87086,4.01106 0,2.32687 -3.52186,5.91967 -6.54709,6.67895 -5.61491,1.40926 -11.29029,-3.25989 -25.64866,-21.10117 -10.46252,-13.00042 -15.93723,-18.11125 -28.18765,-26.31416 -9.25032,-6.19402 -15.52899,-9.48969 -24.54267,-12.88243 -7.45502,-2.80606 -8.3265,-2.37902 -9.44717,4.62924 -1.45309,9.08714 -6.28478,16.00687 -8.01977,11.48556 -0.83671,-2.18041 -0.68565,-10.06213 0.28934,-15.0974 0.44507,-2.29856 0.48027,-4.71146 0.0782,-5.36201 -1.11915,-1.81081 -9.23776,-3.06523 -10.60273,-1.63824 -0.62051,0.64869 -1.61665,5.11597 -2.21366,9.92728 -1.17458,9.46606 -2.39038,12.75216 -4.71807,12.75216 -2.21823,0 -3.32605,-3.95225 -4.06852,-14.51474 l -0.66675,-9.48526 -5.8315,0 -5.83149,0 0.22909,10.4585 c 0.18467,8.43 -0.0785,10.76722 -1.3568,12.05019 -1.28633,1.29102 -1.78653,1.34608 -2.64797,0.2915 -1.75564,-2.14927 -4.26613,-11.86672 -4.26613,-16.51308 0,-2.81807 -0.4959,-4.54018 -1.40822,-4.89027 -3.66759,-1.40738 -35.61317,8.51416 -38.46044,11.9449 -0.71458,0.86103 0.41133,3.3779 3.88535,8.6853 2.69032,4.11013 4.91216,8.03546 4.9374,8.72296 0.093,2.53255 -1.94258,1.12455 -5.06004,-3.5 -15.13821,-22.4565 -20.82577,-23.36402 -25.37931,-4.04958 -0.81685,3.46477 -1.49183,8.12607 -1.49996,10.35845 -0.008,2.23238 -0.62015,4.88677 -1.36005,5.89864 -1.24826,1.7071 -1.39039,1.61417 -1.97095,-1.28863 -0.85126,-4.25626 -2.35358,-3.41656 -7.52121,4.20387 -4.93605,7.27894 -6.67737,11.78434 -7.67939,19.86933 -0.68603,5.53534 -0.59952,5.84682 2.40259,8.65121 1.71282,1.60002 3.11423,3.5546 3.11423,4.34351 0,1.17862 2.29784,1.41033 12.88686,1.29946 11.83616,-0.12392 13.30194,-0.35027 17.97772,-2.77615 3.40715,-1.76769 5.31412,-2.27998 5.76591,-1.54897 0.78739,1.27401 -1.69141,3.35702 -6.63049,5.57181 -2.45347,1.10018 -6.9386,1.60755 -15,1.69683 -13.52905,0.14984 -19.69259,1.85331 -25.88551,7.15422 -5.38599,4.6102 -7.11449,8.08843 -7.11449,14.31634 0,5.58411 1.73151,6.78838 3.90938,2.71898 z m 22.09062,-34.37555 c -2.33606,-0.85396 -6,-4.49841 -6,-5.96808 0,-1.89014 0.81114,-1.66239 4.18237,1.17431 4.97556,4.18666 13.93877,3.25766 18.01364,-1.86704 2.4104,-3.0314 4.40871,-0.94133 2.16403,2.2634 -2.87904,4.1104 -12.70637,6.46414 -18.36004,4.39741 z M 159.295,259.70242 c 0.66259,-3.31297 2.16768,-5.55316 3.10271,-4.61812 0.63072,0.63071 -2.25187,7.83687 -3.13488,7.83687 -0.33637,0 -0.32189,-1.44844 0.0322,-3.21875 z m 3.60625,2.56314 c 0,-1.17203 5.18671,-7.49102 5.71505,-6.96267 0.70216,0.70216 -3.65236,7.61828 -4.79661,7.61828 -0.50514,0 -0.91844,-0.29502 -0.91844,-0.65561 z m 10,49.65561 c 0,-0.55 -2.25,-1 -5,-1 -2.75,0 -5,0.45 -5,1 0,0.55 2.25,1 5,1 2.75,0 5,-0.45 5,-1 z m 16,0 c 0,-0.55 -2.25,-1 -5,-1 -2.75,0 -5,0.45 -5,1 0,0.55 2.25,1 5,1 2.75,0 5,-0.45 5,-1 z m 16,0 c 0,-0.55 -2.25,-1 -5,-1 -2.75,0 -5,0.45 -5,1 0,0.55 2.25,1 5,1 2.75,0 5,-0.45 5,-1 z m 16,0 c 0,-0.55 -2.25,-1 -5,-1 -2.75,0 -5,0.45 -5,1 0,0.55 2.25,1 5,1 2.75,0 5,-0.45 5,-1 z m 80,0 c 0,-0.64815 -12.66667,-1 -36,-1 -23.33333,0 -36,0.35185 -36,1 0,0.64815 12.66667,1 36,1 23.33333,0 36,-0.35185 36,-1 z m 18,0 c 0,-0.55 -2.25,-1 -5,-1 -2.75,0 -5,0.45 -5,1 0,0.55 2.25,1 5,1 2.75,0 5,-0.45 5,-1 z m 16,0 c 0,-0.55 -2.25,-1 -5,-1 -2.75,0 -5,0.45 -5,1 0,0.55 2.25,1 5,1 2.75,0 5,-0.45 5,-1 z m 16,0 c 0,-0.55 -2.25,-1 -5,-1 -2.75,0 -5,0.45 -5,1 0,0.55 2.25,1 5,1 2.75,0 5,-0.45 5,-1 z m 16,0 c 0,-0.55 -2.25,-1 -5,-1 -2.75,0 -5,0.45 -5,1 0,0.55 2.25,1 5,1 2.75,0 5,-0.45 5,-1 z M 160.2873,243.75464 c 3.41336,-4.59333 4.31123,-6.4933 3.51942,-7.44737 -1.57638,-1.89943 -9.29358,-4.60906 -12.0262,-4.22259 -2.1505,0.30414 -2.37632,0.81986 -2.34858,5.3636 0.0296,4.84032 3.36622,12.47289 5.45268,12.47289 0.45115,0 2.88235,-2.77494 5.40268,-6.16653 z m 110.38478,-98.64597 c 0.22111,-0.66333 -0.52375,-1.1875 -1.6875,-1.1875 -2.07732,0 -2.69993,1.05007 -1.39583,2.35417 0.92647,0.92647 2.59622,0.29467 3.08333,-1.16667 z m -4.77083,-5.6875 c 1.59486,-1.92169 4.40514,-1.92169 6,0 1.07198,1.29166 7.34361,1.5 45.15383,1.5 39.33794,0 43.97289,-0.16666 44.52327,-1.60093 0.33788,-0.8805 -0.0137,-1.99484 -0.78138,-2.4763 -0.77202,-0.4842 -43.46278,-0.88079 -95.5329,-0.88749 -80.86347,-0.0104 -94.30622,0.1916 -95.33609,1.43251 -0.6594,0.79453 -0.90861,1.91431 -0.5538,2.4884 0.43341,0.70128 16.17278,1.04381 47.96364,1.04381 40.84097,0 47.48896,-0.20534 48.56343,-1.5 z"
         id="path3201"
         inkscape:connector-curvature="0" />
      <path
         style="fill:#829aba"
         d="m 147.66396,330.35585 c -2.81383,-1.52676 -4.42151,-5.27548 -3.40194,-7.93244 0.73736,-1.92155 -0.2363,-4.49239 -1.71776,-4.53551 -0.62866,-0.0183 -2.26051,-0.96295 -3.62634,-2.09923 -2.11298,-1.75785 -2.48334,-2.91703 -2.48334,-7.77252 0,-5.03017 0.45828,-6.34445 3.86641,-11.08831 3.56326,-4.9598 3.77757,-5.62743 2.73333,-8.51521 -1.77983,-4.92204 -1.40501,-6.17868 2.86693,-9.6117 3.60643,-2.89821 4.00235,-3.66538 4.02386,-7.79712 0.0131,-2.52045 0.49443,-6.38264 1.06957,-8.58264 0.57515,-2.2 1.28344,-4.96841 1.57399,-6.15201 0.31445,-1.28098 -0.75351,-4.83775 -2.63852,-8.78743 -3.78598,-7.93282 -4.67301,-12.48851 -3.02952,-15.55939 1.13424,-2.11935 1.67727,-2.23452 8.02656,-1.70221 5.52941,0.46356 6.91946,0.28571 7.39204,-0.94581 0.32011,-0.8342 0.58202,-22.11923 0.58202,-47.30008 0,-44.80359 0.0444,-45.83974 2.07258,-48.41821 l 2.07258,-2.63486 98.31664,0 c 95.30604,0 98.38892,0.0585 100.67742,1.91132 l 2.36078,1.91132 0.5,68.33868 c 0.49062,67.05681 0.5368,68.33868 2.46166,68.33868 1.16099,0 2.4875,-1.12243 3.25,-2.75 0.70858,-1.5125 1.8681,-3.9875 2.57668,-5.5 1.02913,-2.19669 1.96267,-2.75 4.63975,-2.75 2.68088,0 3.97368,0.76884 6.46166,3.84282 2.83268,3.49987 3.11025,4.48156 3.11025,11 0,6.44806 -0.322,7.62088 -3.25,11.83736 -3.45473,4.97499 -3.90933,6.76049 -2.16534,8.50448 1.72244,1.72244 0.63193,5.65771 -1.91884,6.92449 -4.29128,2.13116 -4.35626,2.83229 -0.80848,8.72396 1.87914,3.12062 3.73496,7.79675 4.12406,10.39141 0.66265,4.4189 0.51054,4.89349 -2.40276,7.49652 l -3.11019,2.77896 -115.73423,-0.04 c -100.41608,-0.0348 -116.09652,-0.23666 -118.47151,-1.52532 z m 228.04836,-9.04689 c 3.5698,-0.71396 4.56987,-2.48456 2.78333,-4.9278 -0.8505,-1.16313 -3.38056,-1.97353 -7.68131,-2.46037 -3.5272,-0.39929 -5.58809,-0.78754 -4.57976,-0.8628 1.00834,-0.0753 1.64584,-0.69932 1.41667,-1.38682 -0.54448,-1.63345 -10.93017,-1.70948 -11.47201,-0.084 -0.21377,0.64131 0.42373,1.37661 1.41667,1.634 0.99294,0.25739 -0.66966,0.46798 -3.69466,0.46798 -3.025,0 -4.6876,-0.21059 -3.69466,-0.46798 3.74743,-0.97139 0.93574,-2.8 -4.30534,-2.8 -5.24108,0 -8.05277,1.82861 -4.30534,2.80002 0.99294,0.25739 -0.66966,0.46798 -3.69466,0.46798 -3.025,0 -4.6876,-0.21059 -3.69466,-0.46798 3.74743,-0.97141 0.93574,-2.80002 -4.30534,-2.80002 -5.24108,0 -8.05277,1.82861 -4.30534,2.80002 0.99294,0.25739 -0.66966,0.46798 -3.69466,0.46798 -3.025,0 -4.6876,-0.21059 -3.69466,-0.46798 3.74743,-0.97141 0.93574,-2.80002 -4.30534,-2.80002 -5.24108,0 -8.05277,1.82861 -4.30534,2.80002 0.99294,0.25739 -1.11966,0.46798 -4.69466,0.46798 -3.575,0 -5.6876,-0.21059 -4.69466,-0.46798 0.99294,-0.25739 1.63044,-0.99269 1.41667,-1.634 -0.55724,-1.67171 -72.88678,-1.67171 -73.44402,0 -0.21377,0.64131 0.42373,1.37661 1.41667,1.634 0.99294,0.25739 -1.11966,0.46798 -4.69466,0.46798 -3.575,0 -5.6876,-0.21059 -4.69466,-0.46798 3.74743,-0.97141 0.93574,-2.80002 -4.30534,-2.80002 -5.24108,0 -8.05277,1.82861 -4.30534,2.80002 0.99294,0.25739 -0.66966,0.46798 -3.69466,0.46798 -3.025,0 -4.6876,-0.21059 -3.69466,-0.46798 3.74743,-0.97141 0.93574,-2.80002 -4.30534,-2.80002 -5.24108,0 -8.05277,1.82861 -4.30534,2.80002 0.99294,0.25739 -0.66966,0.46798 -3.69466,0.46798 -3.025,0 -4.6876,-0.21059 -3.69466,-0.46798 3.74743,-0.97141 0.93574,-2.80002 -4.30534,-2.80002 -5.24108,0 -8.05277,1.82861 -4.30534,2.80002 0.99294,0.25739 -0.66966,0.46798 -3.69466,0.46798 -3.025,0 -4.6876,-0.21059 -3.69466,-0.46798 0.99294,-0.25739 1.63044,-0.99269 1.41667,-1.634 -0.54184,-1.6255 -10.92753,-1.54947 -11.47201,0.084 -0.22917,0.6875 0.40833,1.309 1.41667,1.38112 1.00833,0.0721 -0.8068,0.4682 -4.03361,0.8802 -3.22682,0.412 -6.25743,1.3655 -6.73469,2.11888 -1.55668,2.45733 -0.96501,4.71786 1.35163,5.16407 3.55627,0.68496 218.15094,0.77554 221.56107,0.0935 z M 143.81063,310.59049 c 0.68604,-1.28188 2.67458,-3.19438 4.41898,-4.25 3.075,-1.86084 5.86828,-1.9093 91.67164,-1.59061 101.94558,0.37866 138.75531,-0.89097 143.6519,-4.95477 3.27662,-2.71936 -2.52731,-6.67429 -16.86815,-11.49434 -10.74723,-3.61221 -22.46063,-10.66431 -37.29987,-22.45651 -6.92875,-5.50602 -8.91669,-7.92309 -6.51641,-7.92309 0.5321,0 5.60696,3.4875 11.27746,7.75 16.79531,12.62499 22.76313,16.07862 35.14259,20.33731 12.83461,4.41526 14.31939,4.31394 17.15561,-1.17072 3.80731,-7.36252 2.65101,-18.43283 -2.26151,-21.65164 -2.43318,-1.59428 -2.61852,-1.56712 -4.41076,0.64621 -1.02897,1.27072 -1.87086,3.0757 -1.87086,4.01106 0,2.32687 -3.52186,5.91967 -6.54709,6.67895 -5.61491,1.40926 -11.29029,-3.25989 -25.64866,-21.10117 -10.46252,-13.00042 -15.93723,-18.11125 -28.18765,-26.31416 -9.25032,-6.19402 -15.52899,-9.48969 -24.54267,-12.88243 -7.45502,-2.80606 -8.3265,-2.37902 -9.44717,4.62924 -1.45309,9.08714 -6.28478,16.00687 -8.01977,11.48556 -0.83671,-2.18041 -0.68565,-10.06213 0.28934,-15.0974 0.44507,-2.29856 0.48027,-4.71146 0.0782,-5.36201 -1.11915,-1.81081 -9.23776,-3.06523 -10.60273,-1.63824 -0.62051,0.64869 -1.61665,5.11597 -2.21366,9.92728 -1.17458,9.46606 -2.39038,12.75216 -4.71807,12.75216 -2.21823,0 -3.32605,-3.95225 -4.06852,-14.51474 l -0.66675,-9.48526 -5.8315,0 -5.83149,0 0.22909,10.4585 c 0.18467,8.43 -0.0785,10.76722 -1.3568,12.05019 -1.28633,1.29102 -1.78653,1.34608 -2.64797,0.2915 -1.75564,-2.14927 -4.26613,-11.86672 -4.26613,-16.51308 0,-2.81807 -0.4959,-4.54018 -1.40822,-4.89027 -3.66759,-1.40738 -35.61317,8.51416 -38.46044,11.9449 -0.71458,0.86103 0.41133,3.3779 3.88535,8.6853 2.69032,4.11013 4.91216,8.03546 4.9374,8.72296 0.093,2.53255 -1.94258,1.12455 -5.06004,-3.5 -15.13821,-22.4565 -20.82577,-23.36402 -25.37931,-4.04958 -0.81685,3.46477 -1.49183,8.12607 -1.49996,10.35845 -0.008,2.23238 -0.62015,4.88677 -1.36005,5.89864 -1.24826,1.7071 -1.39039,1.61417 -1.97095,-1.28863 -0.85126,-4.25626 -2.35358,-3.41656 -7.52121,4.20387 -4.93605,7.27894 -6.67737,11.78434 -7.67939,19.86933 -0.68603,5.53534 -0.59952,5.84682 2.40259,8.65121 1.71282,1.60002 3.11423,3.5546 3.11423,4.34351 0,1.17862 2.29784,1.41033 12.88686,1.29946 11.83616,-0.12392 13.30194,-0.35027 17.97772,-2.77615 3.40715,-1.76769 5.31412,-2.27998 5.76591,-1.54897 0.78739,1.27401 -1.69141,3.35702 -6.63049,5.57181 -2.45347,1.10018 -6.9386,1.60755 -15,1.69683 -13.52905,0.14984 -19.69259,1.85331 -25.88551,7.15422 -5.38599,4.6102 -7.11449,8.08843 -7.11449,14.31634 0,5.58411 1.73151,6.78838 3.90938,2.71898 z m 22.09062,-34.37555 c -2.33606,-0.85396 -6,-4.49841 -6,-5.96808 0,-1.89014 0.81114,-1.66239 4.18237,1.17431 4.97556,4.18666 13.93877,3.25766 18.01364,-1.86704 2.4104,-3.0314 4.40871,-0.94133 2.16403,2.2634 -2.87904,4.1104 -12.70637,6.46414 -18.36004,4.39741 z M 159.295,259.70242 c 0.66259,-3.31297 2.16768,-5.55316 3.10271,-4.61812 0.63072,0.63071 -2.25187,7.83687 -3.13488,7.83687 -0.33637,0 -0.32189,-1.44844 0.0322,-3.21875 z m 3.60625,2.56314 c 0,-1.17203 5.18671,-7.49102 5.71505,-6.96267 0.70216,0.70216 -3.65236,7.61828 -4.79661,7.61828 -0.50514,0 -0.91844,-0.29502 -0.91844,-0.65561 z m -2.61395,-18.51092 c 3.41336,-4.59333 4.31123,-6.4933 3.51942,-7.44737 -1.57638,-1.89943 -9.29358,-4.60906 -12.0262,-4.22259 -2.1505,0.30414 -2.37632,0.81986 -2.34858,5.3636 0.0296,4.84032 3.36622,12.47289 5.45268,12.47289 0.45115,0 2.88235,-2.77494 5.40268,-6.16653 z m 111.61395,-98.33347 c 1.07332,-1.29327 0.65985,-1.5 -3,-1.5 -3.65985,0 -4.07332,0.20673 -3,1.5 0.68469,0.825 2.03469,1.5 3,1.5 0.96531,0 2.31531,-0.675 3,-1.5 z m -5.95951,-5.68806 2.95951,-2.18806 2.95951,2.18806 c 2.93263,2.16819 3.33446,2.18794 44.25,2.1744 22.70977,-0.007 42.3266,-0.29116 43.59296,-0.63035 1.63513,-0.43795 2.2148,-1.23104 2,-2.73634 l -0.30247,-2.11965 -95.77946,-0.25503 c -88.21954,-0.2349 -95.82942,-0.12482 -96.41248,1.39461 -1.59266,4.1504 0.73964,4.36042 48.42356,4.36042 45.08021,0 45.36693,-0.013 48.30887,-2.18806 z"
         id="path3199"
         inkscape:connector-curvature="0" />
      <path
         style="fill:#dc6091"
         d="m 148.26533,330.75824 c -2.86032,-1.39391 -4.44972,-5.15886 -3.7194,-8.81047 0.49753,-2.48765 0.20232,-3.14852 -1.77391,-3.97125 -5.32501,-2.21686 -6.33744,-3.79714 -6.33744,-9.892 0,-5.10954 0.44549,-6.39501 3.86641,-11.15668 3.56326,-4.9598 3.77757,-5.62743 2.73333,-8.51521 -1.77983,-4.92204 -1.40501,-6.17868 2.86693,-9.6117 3.60643,-2.89821 4.00235,-3.66538 4.02386,-7.79712 0.0131,-2.52045 0.49443,-6.38264 1.06957,-8.58264 0.57515,-2.2 1.28344,-4.96841 1.57399,-6.15201 0.31445,-1.28098 -0.75351,-4.83775 -2.63852,-8.78743 -3.77388,-7.90746 -4.67335,-12.48788 -3.04848,-15.52397 1.09933,-2.05413 1.7851,-2.20895 8.35858,-1.88715 l 7.161,0.35056 0.5,-47.83896 0.5,-47.83896 2.36078,-1.91104 c 2.28817,-1.85225 5.36779,-1.91104 100.11364,-1.91104 l 97.75285,0 2.62942,2.62941 2.62941,2.62942 0.25695,67.62058 c 0.25241,66.426 0.2916,67.62059 2.21861,67.62059 1.16099,0 2.4875,-1.12243 3.25,-2.75 0.70858,-1.5125 1.8681,-3.9875 2.57668,-5.5 1.02913,-2.19669 1.96267,-2.75 4.63975,-2.75 2.68088,0 3.97368,0.76884 6.46166,3.84282 2.83268,3.49987 3.11025,4.48156 3.11025,11 0,6.44806 -0.322,7.62088 -3.25,11.83736 -3.45473,4.97499 -3.90933,6.76049 -2.16534,8.50448 1.72244,1.72244 0.63193,5.65771 -1.91884,6.92449 -4.4993,2.23447 -4.56721,2.93197 -0.88151,9.05507 4.78023,7.94146 5.50627,13.3051 2.30484,17.02717 l -2.41573,2.80861 -116.33671,0.18898 c -78.94467,0.12824 -117.02322,-0.14558 -118.47263,-0.85191 z m 231.6038,-7.29837 c 1.48537,-1.78976 -0.11692,-7.48596 -2.75553,-9.79598 -2.97892,-2.60795 -7.96295,-2.97879 -39.46235,-2.9362 -16.9125,0.0229 -31.65,0.0172 -32.75,-0.0127 -1.1,-0.0298 -19.1,-0.0542 -40,-0.0542 -20.9,0 -38.9,0.0244 -40,0.0542 -1.1,0.0298 -15.8375,0.0355 -32.75,0.0127 -16.9125,-0.0229 -32.11666,0.27332 -33.78702,0.65819 -5.21943,1.20263 -9.31978,9.27849 -6.26298,12.33529 0.91913,0.91913 27.57279,1.2 113.87756,1.2 97.61155,0 112.83971,-0.19539 113.89032,-1.4613 z m -236.0585,-12.86938 c 0.68604,-1.28188 2.67458,-3.19438 4.41898,-4.25 3.075,-1.86084 5.86828,-1.9093 91.67164,-1.59061 101.94558,0.37866 138.75531,-0.89097 143.6519,-4.95477 3.27662,-2.71936 -2.52731,-6.67429 -16.86815,-11.49434 -10.74723,-3.61221 -22.46063,-10.66431 -37.29987,-22.45651 -6.92875,-5.50602 -8.91669,-7.92309 -6.51641,-7.92309 0.5321,0 5.60696,3.4875 11.27746,7.75 16.79531,12.62499 22.76313,16.07862 35.14259,20.33731 12.83461,4.41526 14.31939,4.31394 17.15561,-1.17072 3.80731,-7.36252 2.65101,-18.43283 -2.26151,-21.65164 -2.43318,-1.59428 -2.61852,-1.56712 -4.41076,0.64621 -1.02897,1.27072 -1.87086,3.0757 -1.87086,4.01106 0,2.32687 -3.52186,5.91967 -6.54709,6.67895 -5.61491,1.40926 -11.29029,-3.25989 -25.64866,-21.10117 -10.46252,-13.00042 -15.93723,-18.11125 -28.18765,-26.31416 -9.25032,-6.19402 -15.52899,-9.48969 -24.54267,-12.88243 -7.45502,-2.80606 -8.3265,-2.37902 -9.44717,4.62924 -1.45309,9.08714 -6.28478,16.00687 -8.01977,11.48556 -0.83671,-2.18041 -0.68565,-10.06213 0.28934,-15.0974 0.44507,-2.29856 0.48027,-4.71146 0.0782,-5.36201 -1.11915,-1.81081 -9.23776,-3.06523 -10.60273,-1.63824 -0.62051,0.64869 -1.61665,5.11597 -2.21366,9.92728 -1.17458,9.46606 -2.39038,12.75216 -4.71807,12.75216 -2.21823,0 -3.32605,-3.95225 -4.06852,-14.51474 l -0.66675,-9.48526 -5.8315,0 -5.83149,0 0.22909,10.4585 c 0.18467,8.43 -0.0785,10.76722 -1.3568,12.05019 -1.28633,1.29102 -1.78653,1.34608 -2.64797,0.2915 -1.75564,-2.14927 -4.26613,-11.86672 -4.26613,-16.51308 0,-2.81807 -0.4959,-4.54018 -1.40822,-4.89027 -3.66759,-1.40738 -35.61317,8.51416 -38.46044,11.9449 -0.71458,0.86103 0.41133,3.3779 3.88535,8.6853 2.69032,4.11013 4.91216,8.03546 4.9374,8.72296 0.093,2.53255 -1.94258,1.12455 -5.06004,-3.5 -15.13821,-22.4565 -20.82577,-23.36402 -25.37931,-4.04958 -0.81685,3.46477 -1.49183,8.12607 -1.49996,10.35845 -0.008,2.23238 -0.62015,4.88677 -1.36005,5.89864 -1.24826,1.7071 -1.39039,1.61417 -1.97095,-1.28863 -0.85126,-4.25626 -2.35358,-3.41656 -7.52121,4.20387 -4.93605,7.27894 -6.67737,11.78434 -7.67939,19.86933 -0.68603,5.53534 -0.59952,5.84682 2.40259,8.65121 1.71282,1.60002 3.11423,3.5546 3.11423,4.34351 0,1.17862 2.29784,1.41033 12.88686,1.29946 11.83616,-0.12392 13.30194,-0.35027 17.97772,-2.77615 3.40715,-1.76769 5.31412,-2.27998 5.76591,-1.54897 0.78739,1.27401 -1.69141,3.35702 -6.63049,5.57181 -2.45347,1.10018 -6.9386,1.60755 -15,1.69683 -13.52905,0.14984 -19.69259,1.85331 -25.88551,7.15422 -5.38599,4.6102 -7.11449,8.08843 -7.11449,14.31634 0,5.58411 1.73151,6.78838 3.90938,2.71898 z m 22.09062,-34.37555 c -2.33606,-0.85396 -6,-4.49841 -6,-5.96808 0,-1.89014 0.81114,-1.66239 4.18237,1.17431 4.97556,4.18666 13.93877,3.25766 18.01364,-1.86704 2.4104,-3.0314 4.40871,-0.94133 2.16403,2.2634 -2.87904,4.1104 -12.70637,6.46414 -18.36004,4.39741 z M 159.295,259.70242 c 0.66259,-3.31297 2.16768,-5.55316 3.10271,-4.61812 0.63072,0.63071 -2.25187,7.83687 -3.13488,7.83687 -0.33637,0 -0.32189,-1.44844 0.0322,-3.21875 z m 3.60625,2.56314 c 0,-1.17203 5.18671,-7.49102 5.71505,-6.96267 0.70216,0.70216 -3.65236,7.61828 -4.79661,7.61828 -0.50514,0 -0.91844,-0.29502 -0.91844,-0.65561 z m 199.75769,-64.59439 -0.25769,-61.25 -96.5,0 -96.5,0 -0.26188,38.25 c -0.14404,21.0375 -0.0765,38.25 0.15,38.25 0.22653,0 1.98688,-1.575 3.91188,-3.5 1.925,-1.925 4.42465,-3.5 5.55478,-3.5 2.01599,0 2.06034,-0.51839 2.35,-27.46587 0.26654,-24.79747 0.46871,-27.6392 2.08096,-29.25 1.68415,-1.68263 6.36847,-1.78413 82.33838,-1.78413 l 80.55263,0 1.91162,2.36078 c 1.82125,2.24917 1.91163,4.57125 1.91163,49.11514 0,46.39337 0.0167,46.77664 2.16589,49.63922 3.20206,4.26501 9.12149,10.38486 10.04474,10.38486 0.44261,0 0.68878,-27.5625 0.54706,-61.25 z m -96.56732,-56.5 c 0.2126,-1.10396 1.24982,-1.75 2.80963,-1.75 1.55981,0 2.59703,0.64604 2.80963,1.75 0.26332,1.3673 -0.3511,1.75 -2.80963,1.75 -2.45853,0 -3.07295,-0.3827 -2.80963,-1.75 z M 160.2873,243.75464 c 3.41336,-4.59333 4.31123,-6.4933 3.51942,-7.44737 -1.57638,-1.89943 -9.29358,-4.60906 -12.0262,-4.22259 -2.1505,0.30414 -2.37632,0.81986 -2.34858,5.3636 0.0296,4.84032 3.36622,12.47289 5.45268,12.47289 0.45115,0 2.88235,-2.77494 5.40268,-6.16653 z"
         id="path3197"
         inkscape:connector-curvature="0" />
      <path
         style="fill:#a49986"
         d="m 148.26533,330.75824 c -2.86032,-1.39391 -4.44972,-5.15886 -3.7194,-8.81047 0.49753,-2.48765 0.20232,-3.14852 -1.77391,-3.97125 -5.3145,-2.21249 -6.33744,-3.80153 -6.33744,-9.84462 0,-5.10293 0.45633,-6.38097 4.18435,-11.71914 3.72683,-5.33648 4.12233,-6.44362 3.61719,-10.12579 -0.51672,-3.76662 -0.29009,-4.33903 2.54899,-6.43806 2.83148,-2.0934 3.11832,-2.81195 3.14,-7.8658 0.0131,-3.05907 0.49443,-7.36194 1.06957,-9.56194 0.57515,-2.2 1.28344,-4.96841 1.57399,-6.15201 0.31445,-1.28098 -0.75351,-4.83775 -2.63852,-8.78743 -3.77388,-7.90746 -4.67335,-12.48788 -3.04848,-15.52397 1.09933,-2.05413 1.7851,-2.20895 8.35858,-1.88715 l 7.161,0.35056 0.5,-47.83896 0.5,-47.83896 2.36078,-1.91104 c 2.28817,-1.85225 5.36779,-1.91104 100.11364,-1.91104 l 97.75285,0 2.62942,2.62941 2.62941,2.62942 0.25695,67.62058 c 0.25241,66.426 0.2916,67.62059 2.21861,67.62059 1.16099,0 2.4875,-1.12243 3.25,-2.75 0.70858,-1.5125 1.8681,-3.9875 2.57668,-5.5 1.02913,-2.19669 1.96267,-2.75 4.63975,-2.75 2.68088,0 3.97368,0.76884 6.46166,3.84282 2.83268,3.49987 3.11025,4.48156 3.11025,11 0,6.44806 -0.322,7.62088 -3.25,11.83736 -3.45473,4.97499 -3.90933,6.76049 -2.16534,8.50448 1.72244,1.72244 0.63193,5.65771 -1.91884,6.92449 -4.4993,2.23447 -4.56721,2.93197 -0.88151,9.05507 4.78023,7.94146 5.50627,13.3051 2.30484,17.02717 l -2.41573,2.80861 -116.33671,0.18898 c -78.94467,0.12824 -117.02322,-0.14558 -118.47263,-0.85191 z m 231.6038,-7.29837 c 1.48537,-1.78976 -0.11692,-7.48596 -2.75553,-9.79598 -2.97892,-2.60795 -7.96295,-2.97879 -39.46235,-2.9362 -16.9125,0.0229 -31.65,0.0172 -32.75,-0.0127 -1.1,-0.0298 -19.1,-0.0542 -40,-0.0542 -20.9,0 -38.9,0.0244 -40,0.0542 -1.1,0.0298 -15.8375,0.0355 -32.75,0.0127 -16.9125,-0.0229 -32.11666,0.27332 -33.78702,0.65819 -5.21943,1.20263 -9.31978,9.27849 -6.26298,12.33529 0.91913,0.91913 27.57279,1.2 113.87756,1.2 97.61155,0 112.83971,-0.19539 113.89032,-1.4613 z m -236.0585,-12.86938 c 0.68604,-1.28188 2.67458,-3.19438 4.41898,-4.25 3.075,-1.86084 5.86828,-1.9093 91.67164,-1.59061 101.94558,0.37866 138.75531,-0.89097 143.6519,-4.95477 3.27662,-2.71936 -2.52731,-6.67429 -16.86815,-11.49434 -10.74723,-3.61221 -22.46063,-10.66431 -37.29987,-22.45651 -6.92875,-5.50602 -8.91669,-7.92309 -6.51641,-7.92309 0.5321,0 5.60696,3.4875 11.27746,7.75 16.79531,12.62499 22.76313,16.07862 35.14259,20.33731 12.83461,4.41526 14.31939,4.31394 17.15561,-1.17072 3.80731,-7.36252 2.65101,-18.43283 -2.26151,-21.65164 -2.43318,-1.59428 -2.61852,-1.56712 -4.41076,0.64621 -1.02897,1.27072 -1.87086,3.0757 -1.87086,4.01106 0,2.32687 -3.52186,5.91967 -6.54709,6.67895 -5.61491,1.40926 -11.29029,-3.25989 -25.64866,-21.10117 -10.46252,-13.00042 -15.93723,-18.11125 -28.18765,-26.31416 -9.25032,-6.19402 -15.52899,-9.48969 -24.54267,-12.88243 -7.45502,-2.80606 -8.3265,-2.37902 -9.44717,4.62924 -1.45309,9.08714 -6.28478,16.00687 -8.01977,11.48556 -0.83671,-2.18041 -0.68565,-10.06213 0.28934,-15.0974 0.44507,-2.29856 0.48027,-4.71146 0.0782,-5.36201 -1.11915,-1.81081 -9.23776,-3.06523 -10.60273,-1.63824 -0.62051,0.64869 -1.61665,5.11597 -2.21366,9.92728 -1.17458,9.46606 -2.39038,12.75216 -4.71807,12.75216 -2.21823,0 -3.32605,-3.95225 -4.06852,-14.51474 l -0.66675,-9.48526 -5.8315,0 -5.83149,0 0.22909,10.4585 c 0.18467,8.43 -0.0785,10.76722 -1.3568,12.05019 -1.28633,1.29102 -1.78653,1.34608 -2.64797,0.2915 -1.75564,-2.14927 -4.26613,-11.86672 -4.26613,-16.51308 0,-2.81807 -0.4959,-4.54018 -1.40822,-4.89027 -3.66759,-1.40738 -35.61317,8.51416 -38.46044,11.9449 -0.71458,0.86103 0.41133,3.3779 3.88535,8.6853 2.69032,4.11013 4.91216,8.03546 4.9374,8.72296 0.093,2.53255 -1.94258,1.12455 -5.06004,-3.5 -15.13821,-22.4565 -20.82577,-23.36402 -25.37931,-4.04958 -0.81685,3.46477 -1.49183,8.12607 -1.49996,10.35845 -0.008,2.23238 -0.62015,4.88677 -1.36005,5.89864 -1.24826,1.7071 -1.39039,1.61417 -1.97095,-1.28863 -0.40032,-2.00158 -1.0939,-2.94873 -1.9256,-2.62958 -1.93387,0.7421 -9.68347,12.56484 -11.28718,17.21967 -2.29447,6.65974 -2.97118,16.59799 -1.24756,18.32161 0.80338,0.80338 1.96426,2.40162 2.57973,3.55165 1.05756,1.97605 1.85781,2.08159 14.56315,1.92051 12.38972,-0.15708 13.84193,-0.37684 18.51661,-2.80215 3.39557,-1.76168 5.29568,-2.27061 5.74756,-1.53945 0.78739,1.27401 -1.69141,3.35702 -6.63049,5.57181 -2.45347,1.10018 -6.9386,1.60755 -15,1.69683 -13.52905,0.14984 -19.69259,1.85331 -25.88551,7.15422 -5.38599,4.6102 -7.11449,8.08843 -7.11449,14.31634 0,5.58411 1.73151,6.78838 3.90938,2.71898 z m 22.09062,-34.37555 c -2.33606,-0.85396 -6,-4.49841 -6,-5.96808 0,-1.89014 0.81114,-1.66239 4.18237,1.17431 4.97556,4.18666 13.93877,3.25766 18.01364,-1.86704 2.4104,-3.0314 4.40871,-0.94133 2.16403,2.2634 -2.87904,4.1104 -12.70637,6.46414 -18.36004,4.39741 z M 159.295,259.70242 c 0.66259,-3.31297 2.16768,-5.55316 3.10271,-4.61812 0.63072,0.63071 -2.25187,7.83687 -3.13488,7.83687 -0.33637,0 -0.32189,-1.44844 0.0322,-3.21875 z m 3.60625,2.56314 c 0,-1.17203 5.18671,-7.49102 5.71505,-6.96267 0.70216,0.70216 -3.65236,7.61828 -4.79661,7.61828 -0.50514,0 -0.91844,-0.29502 -0.91844,-0.65561 z m 199.75769,-64.59439 -0.25769,-61.25 -96.5,0 -96.5,0 -0.26188,38.25 c -0.14404,21.0375 -0.0765,38.25 0.15,38.25 0.22653,0 1.98688,-1.575 3.91188,-3.5 1.925,-1.925 4.42465,-3.5 5.55478,-3.5 2.01599,0 2.06034,-0.51839 2.35,-27.46587 0.26654,-24.79747 0.46871,-27.6392 2.08096,-29.25 1.68415,-1.68263 6.36847,-1.78413 82.33838,-1.78413 l 80.55263,0 1.91162,2.36078 c 1.82125,2.24917 1.91163,4.57125 1.91163,49.11514 0,46.39337 0.0167,46.77664 2.16589,49.63922 3.20206,4.26501 9.12149,10.38486 10.04474,10.38486 0.44261,0 0.68878,-27.5625 0.54706,-61.25 z m -96.56732,-56.5 c 0.2126,-1.10396 1.24982,-1.75 2.80963,-1.75 1.55981,0 2.59703,0.64604 2.80963,1.75 0.26332,1.3673 -0.3511,1.75 -2.80963,1.75 -2.45853,0 -3.07295,-0.3827 -2.80963,-1.75 z M 160.2873,243.75464 c 3.41336,-4.59333 4.31123,-6.4933 3.51942,-7.44737 -1.57638,-1.89943 -9.29358,-4.60906 -12.0262,-4.22259 -2.1505,0.30414 -2.37632,0.81986 -2.34858,5.3636 0.0296,4.84032 3.36622,12.47289 5.45268,12.47289 0.45115,0 2.88235,-2.77494 5.40268,-6.16653 z"
         id="path3195"
         inkscape:connector-curvature="0" />
      <path
         style="fill:#748dae"
         d="m 148.26533,330.75824 c -2.78856,-1.35894 -4.5355,-5.30589 -3.74408,-8.45917 0.50744,-2.02181 -0.0675,-3.14581 -2.96843,-5.80293 -1.97877,-1.81249 -3.78086,-3.11235 -4.00463,-2.88857 -0.93191,0.9319 -1.50755,-6.45617 -0.75472,-9.6864 0.77417,-3.32183 0.84774,-3.37274 1.4452,-1 0.34622,1.375 0.74944,4.29626 0.89604,6.49168 0.3422,5.12477 2.85804,5.85487 5.39222,1.56485 3.73929,-6.33011 4.72462,-6.42521 60.67471,-5.85626 62.01784,0.63066 159.63944,-0.59508 169.19961,-2.12447 9.82313,-1.57147 10.5,-1.86987 10.5,-4.629 0,-3.35979 -5.16543,-6.49836 -17.96862,-10.91793 -7.4299,-2.56475 -13.24355,-5.46104 -20.02848,-9.97795 -11.27331,-7.50494 -24.32361,-17.56355 -23.65495,-18.2322 0.25898,-0.25898 4.44914,2.56835 9.31146,6.28295 15.93578,12.17426 24.38048,17.10727 36.6781,21.42572 12.91981,4.53693 14.18659,4.44101 17.71226,-1.34121 1.06852,-1.7524 1.94444,-2.68648 1.94649,-2.07573 0.002,0.61075 -1.12126,2.76824 -2.49626,4.79441 -2.93646,4.32712 -3.00244,4.89868 -0.93052,8.06084 1.45953,2.22752 1.4245,2.54032 -0.5,4.46482 -1.13821,1.13821 -2.74448,2.06948 -3.56948,2.06948 -2.36393,0 -1.77625,2.73922 1.89853,8.84927 4.67118,7.76675 5.3707,13.14487 2.19062,16.84212 l -2.41573,2.80861 -116.33671,0.18898 c -78.94467,0.12824 -117.02322,-0.14558 -118.47263,-0.85191 z m 231.6038,-7.29837 c 1.48537,-1.78976 -0.11692,-7.48596 -2.75553,-9.79598 -2.97892,-2.60795 -7.96295,-2.97879 -39.46235,-2.9362 -16.9125,0.0229 -31.65,0.0172 -32.75,-0.0127 -1.1,-0.0298 -19.1,-0.0542 -40,-0.0542 -20.9,0 -38.9,0.0244 -40,0.0542 -1.1,0.0298 -15.8375,0.0355 -32.75,0.0127 -16.9125,-0.0229 -32.11666,0.27332 -33.78702,0.65819 -5.21943,1.20263 -9.31978,9.27849 -6.26298,12.33529 0.91913,0.91913 27.57279,1.2 113.87756,1.2 97.61155,0 112.83971,-0.19539 113.89032,-1.4613 z M 138.90125,301.51106 c 0,-1.36193 2.90084,-6.26271 4.4854,-7.57777 1.28315,-1.06492 1.48338,-2.41379 0.96922,-6.529 -0.62312,-4.98735 -0.52274,-5.28485 2.61074,-7.73717 2.93274,-2.29522 3.32842,-3.23551 3.95474,-9.39817 l 0.69595,-6.84778 0.14197,6.67857 c 0.0814,3.82735 0.68117,7.24272 1.40495,8 0.69463,0.72679 1.98889,2.45804 2.87614,3.84722 1.60773,2.51726 1.65828,2.52494 14.9654,2.27349 11.97547,-0.22628 13.84422,-0.50755 18.12385,-2.72791 2.6244,-1.36158 4.77164,-2.0873 4.77164,-1.6127 0,0.47461 -2.1375,1.90033 -4.75,3.16829 -3.98953,1.93628 -6.91133,2.39329 -18.25,2.85454 -11.30366,0.45982 -14.23211,0.91591 -18,2.80334 -5.73128,2.87096 -8.23257,4.99546 -11.43176,9.70974 -1.41253,2.08148 -2.56824,3.47437 -2.56824,3.09531 z m 250.87966,-18.58989 c -0.68443,-1.79866 -0.31692,-14.89608 0.43921,-15.6522 0.2921,-0.2921 0.84628,1.57072 1.23151,4.13962 0.72458,4.83183 -0.63857,14.22501 -1.67072,11.51258 z m -226.2448,-9.07258 c -1.44917,-1.13992 -2.63486,-2.56836 -2.63486,-3.17431 0,-0.60596 1.11032,-0.0587 2.46737,1.21623 4.69582,4.4115 17.29774,3.41232 19.19107,-1.52163 0.30554,-0.79624 0.97322,-1.44771 1.48373,-1.44771 1.77969,0 -1.21273,3.98512 -4.12215,5.48965 -4.39848,2.27454 -13.16104,1.97387 -16.38516,-0.56223 z m 200.86514,-1.78979 c -3.81593,-2.35937 -12.23212,-11.40369 -20.25552,-21.76725 -11.80199,-15.24424 -28.45054,-27.46314 -49.09923,-36.03548 -4.59511,-1.90767 -8.93776,-3.24476 -9.65034,-2.97132 -0.71257,0.27344 -1.61918,2.441 -2.01468,4.81679 -1.07293,6.44511 -4.49482,14.98328 -5.82183,14.52643 -0.78171,-0.26912 -1.1584,-3.90972 -1.1584,-11.19572 0,-12.17418 -0.0859,-12.30474 -8.18261,-12.44079 -4.84699,-0.0815 -4.84878,-0.0781 -5.86906,10.92971 -0.8149,8.79197 -1.8458,12 -3.85619,12 -2.02883,0 -2.74478,-2.87682 -3.46698,-13.931 l -0.62516,-9.569 -6.5,0 -6.5,0 0.3214,10 c 0.24865,7.73637 -0.0195,10.45273 -1.18478,12 -1.45471,1.93164 -1.56233,1.8666 -3.14864,-1.90273 -0.90335,-2.14651 -1.97544,-7.01911 -2.38242,-10.82801 -0.40698,-3.8089 -1.31385,-7.27996 -2.01528,-7.71346 -3.64714,-2.25406 -38.95377,8.54012 -40.41844,12.35699 -0.27367,0.71317 1.77996,4.74529 4.56363,8.96027 2.78368,4.21497 4.81217,7.91264 4.50776,8.21704 -0.3044,0.30441 -2.59545,-2.60313 -5.09122,-6.46119 -9.28953,-14.36014 -16.12312,-18.4922 -20.47222,-12.37891 -2.63733,3.70715 -5.0731,12.25226 -5.83778,20.47996 -0.59668,6.42005 -2.34201,9.6022 -2.34201,4.27004 0,-1.51682 -0.57003,-2.5 -1.44947,-2.5 -1.90965,0 -10.26635,11.78015 -12.61048,17.77655 -2.06784,5.28966 -2.52002,4.89125 -0.83432,-0.73512 0.97656,-3.25947 0.80133,-4.29132 -1.5,-8.83278 -3.18287,-6.2811 -3.41501,-8.18758 -0.33928,-2.78639 1.22845,2.15724 2.76134,4.09567 3.40641,4.30762 1.51921,0.49916 11.36191,-12.47568 10.72438,-14.13708 -0.65464,-1.70596 -6.56339,-4.43583 -11.20926,-5.17873 -4.32934,-0.69229 -5.77101,0.44455 -6.44966,5.08593 -0.39584,2.7072 -0.45328,2.63191 -0.58849,-0.77144 -0.20128,-5.06644 2.65348,-6.51912 9.44865,-4.80808 3.79376,0.95528 4.87849,0.9325 5.54377,-0.11641 0.45492,-0.71724 0.83402,-22.36202 0.84244,-48.09953 l 0.0153,-46.79545 2.45454,-2.45454 2.45455,-2.45455 97.90909,0 97.90909,0 2.63637,2.63636 2.63636,2.63637 0,67.89502 c 0,60.15975 0.17514,67.96223 1.53725,68.48492 2.2258,0.85412 5.32209,-2.38596 6.06515,-6.34681 0.81521,-4.34545 4.36238,-6.93026 7.33054,-5.34175 2.82077,1.50963 2.61872,1.69869 -1.3235,1.23846 -3.17189,-0.3703 -3.47005,-0.14774 -4.62317,3.4508 -2.53473,7.91014 -7.39817,10.24851 -13.48627,6.48426 z m -1.74231,-74.38763 -0.25769,-61.25 -96.5,0 -96.5,0 -0.26188,38.25 c -0.14404,21.0375 -0.0765,38.25 0.15,38.25 0.22653,0 1.98688,-1.575 3.91188,-3.5 1.925,-1.925 4.42465,-3.5 5.55478,-3.5 2.01599,0 2.06034,-0.51839 2.35,-27.46587 0.26654,-24.79747 0.46871,-27.6392 2.08096,-29.25 1.68415,-1.68263 6.36847,-1.78413 82.33838,-1.78413 l 80.55263,0 1.91162,2.36078 c 1.82125,2.24917 1.91163,4.57125 1.91163,49.11514 0,46.39337 0.0167,46.77664 2.16589,49.63922 3.20206,4.26501 9.12149,10.38486 10.04474,10.38486 0.44261,0 0.68878,-27.5625 0.54706,-61.25 z m -96.56732,-56.5 c 0.2126,-1.10396 1.24982,-1.75 2.80963,-1.75 1.55981,0 2.59703,0.64604 2.80963,1.75 0.26332,1.3673 -0.3511,1.75 -2.80963,1.75 -2.45853,0 -3.07295,-0.3827 -2.80963,-1.75 z"
         id="path3193"
         inkscape:connector-curvature="0" />
      <path
         style="fill:#948977"
         d="m 147.07556,328.60672 c -1.48894,-1.58491 -2.17431,-3.58319 -2.17431,-6.33949 0,-3.33486 -0.43349,-4.22254 -2.52806,-5.17689 -1.39044,-0.63353 -2.78759,-1.82818 -3.10479,-2.65477 -0.3172,-0.8266 -0.93022,-1.28443 -1.36229,-1.01741 -1.25227,0.77395 -2.00633,-5.66235 -1.11264,-9.49699 0.77417,-3.32183 0.84774,-3.37274 1.4452,-1 0.34622,1.375 0.74944,4.29626 0.89604,6.49168 0.3422,5.12477 2.85804,5.85487 5.39222,1.56485 3.73929,-6.33011 4.72462,-6.42521 60.67471,-5.85626 62.01784,0.63066 159.63944,-0.59508 169.19961,-2.12447 9.82313,-1.57147 10.5,-1.86987 10.5,-4.629 0,-3.35979 -5.16543,-6.49836 -17.96862,-10.91793 -7.4299,-2.56475 -13.24355,-5.46104 -20.02848,-9.97795 -11.27331,-7.50494 -24.32361,-17.56355 -23.65495,-18.2322 0.25898,-0.25898 4.44914,2.56835 9.31146,6.28295 15.93578,12.17426 24.38048,17.10727 36.6781,21.42572 12.91981,4.53693 14.18659,4.44101 17.71226,-1.34121 1.06852,-1.7524 1.94444,-2.68648 1.94649,-2.07573 0.002,0.61075 -1.12126,2.76824 -2.49626,4.79441 -2.93646,4.32712 -3.00244,4.89868 -0.93052,8.06084 1.45953,2.22752 1.4245,2.54032 -0.5,4.46482 -1.13821,1.13821 -2.69634,2.06948 -3.46249,2.06948 -2.72361,0 -2.35333,2.70687 1.15492,8.44282 2.30157,3.76306 3.71613,7.47685 4.00906,10.52543 0.40479,4.21268 0.16226,4.93911 -2.29402,6.87122 l -2.74667,2.16053 -116.19082,0 -116.19083,0 -2.17432,-2.31445 z m 233.62569,-3.88555 c 0.66,-0.66 1.2,-2.08296 1.2,-3.16214 0,-2.64784 -4.51637,-10.20007 -6.72349,-11.24295 -2.00986,-0.94968 -203.34071,-1.71464 -213.08222,-0.80962 -5.96313,0.554 -6.46566,0.80664 -9.25,4.65031 -3.07815,4.24926 -3.78406,8.52463 -1.74429,10.5644 1.74204,1.74204 227.85796,1.74204 229.6,0 z m -241.8,-23.21011 c 0,-1.36193 2.90084,-6.26271 4.4854,-7.57777 1.28315,-1.06492 1.48338,-2.41379 0.96922,-6.529 -0.62312,-4.98735 -0.52274,-5.28485 2.61074,-7.73717 2.93274,-2.29522 3.32842,-3.23551 3.95474,-9.39817 l 0.69595,-6.84778 0.14197,6.67857 c 0.0814,3.82735 0.68117,7.24272 1.40495,8 0.69463,0.72679 1.98889,2.45804 2.87614,3.84722 1.60773,2.51726 1.65828,2.52494 14.9654,2.27349 11.97547,-0.22628 13.84422,-0.50755 18.12385,-2.72791 2.6244,-1.36158 4.77164,-2.0873 4.77164,-1.6127 0,0.47461 -2.1375,1.90033 -4.75,3.16829 -3.98953,1.93628 -6.91133,2.39329 -18.25,2.85454 -11.30366,0.45982 -14.23211,0.91591 -18,2.80334 -5.73128,2.87096 -8.23257,4.99546 -11.43176,9.70974 -1.41253,2.08148 -2.56824,3.47437 -2.56824,3.09531 z m 250.87966,-18.58989 c -0.68443,-1.79866 -0.31692,-14.89608 0.43921,-15.6522 0.2921,-0.2921 0.84628,1.57072 1.23151,4.13962 0.72458,4.83183 -0.63857,14.22501 -1.67072,11.51258 z m -226.2448,-9.07258 c -1.44917,-1.13992 -2.63486,-2.56836 -2.63486,-3.17431 0,-0.60596 1.11032,-0.0587 2.46737,1.21623 4.69582,4.4115 17.29774,3.41232 19.19107,-1.52163 0.30554,-0.79624 0.97322,-1.44771 1.48373,-1.44771 1.77969,0 -1.21273,3.98512 -4.12215,5.48965 -4.39848,2.27454 -13.16104,1.97387 -16.38516,-0.56223 z m 200.86514,-1.78979 c -3.81593,-2.35937 -12.23212,-11.40369 -20.25552,-21.76725 -11.80199,-15.24424 -28.45054,-27.46314 -49.09923,-36.03548 -4.59511,-1.90767 -8.93776,-3.24476 -9.65034,-2.97132 -0.71257,0.27344 -1.61918,2.441 -2.01468,4.81679 -1.07293,6.44511 -4.49482,14.98328 -5.82183,14.52643 -0.78171,-0.26912 -1.1584,-3.90972 -1.1584,-11.19572 0,-12.17418 -0.0859,-12.30474 -8.18261,-12.44079 -4.84699,-0.0815 -4.84878,-0.0781 -5.86906,10.92971 -0.8149,8.79197 -1.8458,12 -3.85619,12 -2.02883,0 -2.74478,-2.87682 -3.46698,-13.931 l -0.62516,-9.569 -6.5,0 -6.5,0 0.3214,10 c 0.24865,7.73637 -0.0195,10.45273 -1.18478,12 -1.45471,1.93164 -1.56233,1.8666 -3.14864,-1.90273 -0.90335,-2.14651 -1.97544,-7.01911 -2.38242,-10.82801 -0.40698,-3.8089 -1.31385,-7.27996 -2.01528,-7.71346 -3.64714,-2.25406 -38.95377,8.54012 -40.41844,12.35699 -0.27367,0.71317 1.77996,4.74529 4.56363,8.96027 2.78368,4.21497 4.81217,7.91264 4.50776,8.21704 -0.3044,0.30441 -2.59545,-2.60313 -5.09122,-6.46119 -9.28953,-14.36014 -16.12312,-18.4922 -20.47222,-12.37891 -2.63733,3.70715 -5.0731,12.25226 -5.83778,20.47996 -0.59668,6.42005 -2.34201,9.6022 -2.34201,4.27004 0,-1.51682 -0.57003,-2.5 -1.44947,-2.5 -1.90965,0 -10.26635,11.78015 -12.61048,17.77655 -2.06784,5.28966 -2.52002,4.89125 -0.83432,-0.73512 0.97656,-3.25947 0.80133,-4.29132 -1.5,-8.83278 -3.18287,-6.2811 -3.41501,-8.18758 -0.33928,-2.78639 1.22845,2.15724 2.76134,4.09567 3.40641,4.30762 1.51921,0.49916 11.36191,-12.47568 10.72438,-14.13708 -0.65464,-1.70596 -6.56339,-4.43583 -11.20926,-5.17873 -4.32934,-0.69229 -5.77101,0.44455 -6.44966,5.08593 -0.39584,2.7072 -0.45328,2.63191 -0.58849,-0.77144 -0.20119,-5.06411 2.65379,-6.51904 9.43935,-4.81042 2.58905,0.65193 5.07761,0.81507 5.53014,0.36254 0.45254,-0.45254 0.94832,-22.11506 1.10174,-48.13894 l 0.27894,-47.31614 2.82265,-2.42733 2.82265,-2.42732 97.39977,0.26453 97.39977,0.26452 2.27758,2.2774 2.27758,2.27739 0.27043,68.01183 c 0.23738,59.70153 0.45576,68.08295 1.78724,68.59388 2.2077,0.84718 5.30439,-2.40829 6.04473,-6.35464 0.81521,-4.34545 4.36238,-6.93026 7.33054,-5.34175 2.82077,1.50963 2.61872,1.69869 -1.3235,1.23846 -3.17189,-0.3703 -3.47005,-0.14774 -4.62317,3.4508 -2.53473,7.91014 -7.39817,10.24851 -13.48627,6.48426 z m -0.5,-72.5662 c 0,-54.51082 -0.17697,-61.60554 -1.57143,-63 -1.40657,-1.40657 -11.5619,-1.57143 -96.8,-1.57143 -72.73333,0 -95.51204,0.28347 -96.42857,1.2 -1.41999,1.41999 -1.76576,81.8 -0.35187,81.8 0.46646,0 1.67214,-1.82734 2.67927,-4.06076 1.991,-4.41526 3.99241,-5.93924 7.79987,-5.93924 1.35231,0 2.7319,-0.7118 3.06574,-1.58179 0.33384,-0.86998 0.60699,-13.60498 0.60699,-28.3 0,-19.4475 0.32655,-27.04476 1.2,-27.91821 0.91339,-0.91339 20.36518,-1.2 81.4433,-1.2 l 80.24329,0 1.55671,2.22251 c 1.35467,1.93407 1.5567,8.24849 1.5567,48.6556 l 0,46.43311 2.65191,3.59439 c 4.10052,5.55783 9.61544,11.09439 11.05104,11.09439 1.04866,0 1.29705,-11.7639 1.29705,-61.42857 z M 267.3474,141.83404 c -1.03052,-1.66742 1.28721,-3.57951 2.66672,-2.2 1.15392,1.15392 0.43172,3.28713 -1.11287,3.28713 -0.48508,0 -1.18431,-0.48921 -1.55385,-1.08713 z"
         id="path3191"
         inkscape:connector-curvature="0" />
      <path
         style="fill:#627da2"
         d="m 147.20454,328.67117 c -1.34088,-1.47505 -2.23321,-4.19281 -2.59079,-7.89078 -0.72641,-7.51218 2.10319,-12.07333 8.48367,-13.67518 2.994,-0.75166 32.30324,-0.94361 96.30383,-0.63072 83.41152,0.4078 109.89993,-0.0351 125,-2.09019 l 4,-0.54438 3.91755,6.7566 c 2.50266,4.31636 4.07799,8.42644 4.3618,11.3801 0.39532,4.1142 0.1417,4.86149 -2.3024,6.78402 l -2.74667,2.16053 -116.19082,0 -116.19083,0 -2.04534,-2.25 z m 233.49671,-3.95 c 0.66,-0.66 1.2,-2.08296 1.2,-3.16214 0,-2.64784 -4.51637,-10.20007 -6.72349,-11.24295 -2.00986,-0.94968 -203.34071,-1.71464 -213.08222,-0.80962 -5.96313,0.554 -6.46566,0.80664 -9.25,4.65031 -3.07815,4.24926 -3.78406,8.52463 -1.74429,10.5644 1.74204,1.74204 227.85796,1.74204 229.6,0 z M 144.49326,288.5248 c -1.15286,-4.29465 -0.50159,-6.31568 3.04782,-9.4581 3.46807,-3.07039 3.7162,-3.13806 5.25797,-1.434 0.88998,0.98366 2.35109,2.93236 3.24692,4.33045 l 1.62878,2.54198 -6.3084,3.06164 c -6.21547,3.01655 -6.31671,3.03066 -6.87309,0.95803 z m 215.84242,-21.83755 c -3.14971,-2.87866 -8.83975,-9.39381 -12.64453,-14.47812 -17.08428,-22.82963 -43.016,-39.14378 -73.0646,-45.96638 -10.93141,-2.482 -34.16655,-2.23583 -48.2779,0.51148 -11.27087,2.1943 -22.53397,5.60898 -28.24913,8.56441 -6.82615,3.52994 -7.72283,3.61012 -11.51972,1.03007 -4.35119,-2.95671 -6.61916,-3.0487 -9.98036,-0.40478 -2.57283,2.02379 -6.69819,11.29058 -6.69819,15.04614 0,2.49346 -2.44469,3.50494 -5.31377,2.19856 l -2.18623,-0.99546 0.5,-48.22347 0.5,-48.22348 2.82265,-2.42705 2.82265,-2.42705 97.39977,0.26453 97.39977,0.26452 2.27758,2.2774 2.27758,2.27739 0.27039,67.97261 c 0.23317,58.61554 0.0722,67.9726 -1.16941,67.9726 -0.79189,0 -4.01684,-2.35526 -7.16655,-5.23392 z m 3.56557,-67.19465 c 0,-54.51082 -0.17697,-61.60554 -1.57143,-63 -1.40657,-1.40657 -11.5619,-1.57143 -96.8,-1.57143 -72.73333,0 -95.51204,0.28347 -96.42857,1.2 -1.41999,1.41999 -1.76576,81.8 -0.35187,81.8 0.46646,0 1.67214,-1.82734 2.67927,-4.06076 1.991,-4.41526 3.99241,-5.93924 7.79987,-5.93924 1.35231,0 2.7319,-0.7118 3.06574,-1.58179 0.33384,-0.86998 0.60699,-13.60498 0.60699,-28.3 0,-19.4475 0.32655,-27.04476 1.2,-27.91821 0.91339,-0.91339 20.36518,-1.2 81.4433,-1.2 l 80.24329,0 1.55671,2.22251 c 1.35467,1.93407 1.5567,8.24849 1.5567,48.6556 l 0,46.43311 2.65191,3.59439 c 4.10052,5.55783 9.61544,11.09439 11.05104,11.09439 1.04866,0 1.29705,-11.7639 1.29705,-61.42857 z M 267.3474,141.83404 c -1.03052,-1.66742 1.28721,-3.57951 2.66672,-2.2 1.15392,1.15392 0.43172,3.28713 -1.11287,3.28713 -0.48508,0 -1.18431,-0.48921 -1.55385,-1.08713 z"
         id="path3189"
         inkscape:connector-curvature="0" />
      <path
         style="fill:#7c7d7d"
         d="m 151.90125,330.2042 c -3.8456,-0.71586 -6,-3.21194 -6,-6.95159 0,-1.84722 -0.53472,-4.21481 -1.18828,-5.26131 -0.98787,-1.58184 -0.74793,-2.56813 1.42276,-5.84827 2.0178,-3.0491 3.59418,-4.19236 6.93827,-5.03192 3.02444,-0.75932 32.02591,-0.95098 96.32725,-0.63662 84.23007,0.4118 110.66557,-0.0448 125.25,-2.16311 3.37723,-0.49053 4.25,-0.31083 4.25,0.87509 0,0.82082 1.575,4.10794 3.5,7.30472 4.56558,7.58189 4.8563,13.49506 0.79436,16.15693 -2.54699,1.66909 -9.33375,1.78033 -115.75,1.89725 -62.1744,0.0683 -114.16936,-0.0852 -115.54436,-0.34117 z m 229.8,-4.48303 c 2.07591,-2.07591 1.32053,-7.21838 -1.77798,-12.10422 -2.85596,-4.50339 -3.17349,-4.69786 -7.75,-4.74651 -5.84511,-0.0622 -172.35416,-0.0577 -198.86309,0.005 l -19.09107,0.0457 -2.65893,4.88533 c -2.83661,5.21178 -3.41754,9.95606 -1.45893,11.91467 1.74213,1.74213 229.85787,1.74213 231.6,0 z M 144.49326,288.5248 c -1.15286,-4.29465 -0.50159,-6.31568 3.04782,-9.4581 3.46807,-3.07039 3.7162,-3.13806 5.25797,-1.434 0.88998,0.98366 2.35109,2.93236 3.24692,4.33045 l 1.62878,2.54198 -6.3084,3.06164 c -6.21547,3.01655 -6.31671,3.03066 -6.87309,0.95803 z m 215.84242,-21.83755 c -3.14971,-2.87866 -8.83975,-9.39381 -12.64453,-14.47812 -17.08428,-22.82963 -43.016,-39.14378 -73.0646,-45.96638 -10.93141,-2.482 -34.16655,-2.23583 -48.2779,0.51148 -11.27087,2.1943 -22.53397,5.60898 -28.24913,8.56441 -6.82615,3.52994 -7.72283,3.61012 -11.51972,1.03007 -4.35119,-2.95671 -6.61916,-3.0487 -9.98036,-0.40478 -2.57283,2.02379 -6.69819,11.29058 -6.69819,15.04614 0,2.6124 -2.48313,3.48763 -5.71589,2.01469 -1.95342,-0.89004 -2.30574,-1.46196 -1.43624,-2.33146 0.83623,-0.83623 1.15213,-13.81011 1.15213,-47.31727 0,-45.18984 0.0438,-46.22081 2.07258,-48.8 l 2.07258,-2.63486 97.47287,0 97.47288,0 2.45454,2.45455 2.45455,2.45454 0,65.96367 c 0,36.28001 0.27314,66.67547 0.60699,67.54545 1.22361,3.18867 -2.51626,1.51741 -8.17256,-3.65213 z m 4.32315,-67.29424 -0.25758,-62.91299 -2.5,-1.27286 c -1.98223,-1.00924 -22.2347,-1.22244 -97.78662,-1.02942 -83.42938,0.21314 -95.40535,0.43009 -96.2408,1.74343 -1.50869,2.37169 -0.78866,86.22841 0.74478,86.73931 0.73765,0.24577 1.64647,-1.2977 2.30631,-3.91686 1.56547,-6.21391 4.00664,-8.97974 8.58163,-9.72292 l 3.8947,-0.63267 0.26611,-27.90038 c 0.17687,-18.54325 0.63715,-28.34746 1.37245,-29.23343 0.90469,-1.09009 15.46731,-1.33305 79.9021,-1.33305 43.33767,0 79.50757,0.27315 80.37755,0.60699 1.41095,0.54143 1.58179,5.62096 1.58179,47.03212 0,36.97917 0.27763,47.07986 1.36451,49.64301 1.99117,4.69569 14.31899,17.43438 15.61645,16.13692 0.69588,-0.69588 0.94994,-21.61505 0.77662,-63.9472 z m -96.75758,-58.47184 c 0,-0.55 0.45,-1 1,-1 0.55,0 1,0.45 1,1 0,0.55 -0.45,1 -1,1 -0.55,0 -1,-0.45 -1,-1 z"
         id="path3187"
         inkscape:connector-curvature="0" />
      <path
         style="fill:#b14e73"
         d="m 151.7552,330.22529 c -4.23057,-0.66656 -5.79313,-3.25674 -6.08798,-10.09175 -0.23778,-5.51201 0.0134,-6.4449 2.37022,-8.80236 1.56044,-1.56088 4.41693,-2.96492 7,-3.44069 2.40009,-0.44207 46.15138,-0.59597 97.22509,-0.342 85.71794,0.42624 113.15003,-0.068 123.88872,-2.23205 1.5125,-0.3048 2.75,-0.12294 2.75,0.40412 0,0.52707 1.575,3.57385 3.5,6.77063 4.56558,7.58189 4.8563,13.49506 0.79436,16.15693 -2.54731,1.6693 -9.3204,1.77952 -115.75,1.88356 -62.1744,0.0608 -114.23508,-0.0771 -115.69041,-0.30639 z m 229.94605,-4.50412 c 2.07591,-2.07591 1.32053,-7.21838 -1.77798,-12.10422 -2.85596,-4.50339 -3.17349,-4.69786 -7.75,-4.74651 -5.84511,-0.0622 -172.35416,-0.0577 -198.86309,0.005 l -19.09107,0.0457 -2.65893,4.88533 c -2.83661,5.21178 -3.41754,9.95606 -1.45893,11.91467 1.74213,1.74213 229.85787,1.74213 231.6,0 z M 144.49326,288.5248 c -1.15286,-4.29465 -0.50159,-6.31568 3.04782,-9.4581 3.46807,-3.07039 3.7162,-3.13806 5.25797,-1.434 0.88998,0.98366 2.35109,2.93236 3.24692,4.33045 l 1.62878,2.54198 -6.3084,3.06164 c -6.21547,3.01655 -6.31671,3.03066 -6.87309,0.95803 z m 218.05618,-21.14608 c -2.55167,-1.94835 -7.95342,-7.91085 -12.00388,-13.25 -13.73002,-18.09837 -27.52056,-29.41169 -47.69033,-39.12362 -18.90019,-9.10061 -36.91791,-12.83265 -56.57917,-11.71934 -18.05013,1.0221 -32.30494,4.14932 -46.84445,10.27674 -9.32883,3.93148 -9.91087,3.99112 -13.25749,1.35867 -6.06467,-4.77047 -12.57552,-0.75234 -15.69893,9.68851 -0.95619,3.19632 -1.91237,6.37399 -2.12485,7.06149 -0.42694,1.38143 -2.39906,1.62348 -3.94909,0.48469 -0.65462,-0.48095 -0.82731,-17.19051 -0.5,-48.38074 0.47288,-45.06195 0.60332,-47.76015 2.40499,-49.75 l 1.90499,-2.10395 97.23422,0 c 94.23857,0 97.30696,0.0589 99.59502,1.91122 l 2.36078,1.91123 0.5,67.58903 c 0.275,37.17397 0.22721,67.58892 -0.1062,67.58878 -0.33341,-1.4e-4 -2.69393,-1.59436 -5.24561,-3.54271 z m 2.10939,-67.98571 -0.25758,-62.91299 -2.5,-1.27286 c -1.98223,-1.00924 -22.2347,-1.22244 -97.78662,-1.02942 -83.42938,0.21314 -95.40535,0.43009 -96.2408,1.74343 -1.50869,2.37169 -0.78866,86.22841 0.74478,86.73931 0.73765,0.24577 1.64647,-1.2977 2.30631,-3.91686 1.56547,-6.21391 4.00664,-8.97974 8.58163,-9.72292 l 3.8947,-0.63267 0.26611,-27.90038 c 0.17687,-18.54325 0.63715,-28.34746 1.37245,-29.23343 0.90469,-1.09009 15.46731,-1.33305 79.9021,-1.33305 43.33767,0 79.50757,0.27315 80.37755,0.60699 1.41095,0.54143 1.58179,5.62096 1.58179,47.03212 0,36.97917 0.27763,47.07986 1.36451,49.64301 1.99117,4.69569 14.31899,17.43438 15.61645,16.13692 0.69588,-0.69588 0.94994,-21.61505 0.77662,-63.9472 z m -96.75758,-58.47184 c 0,-0.55 0.45,-1 1,-1 0.55,0 1,0.45 1,1 0,0.55 -0.45,1 -1,1 -0.55,0 -1,-0.45 -1,-1 z"
         id="path3185"
         inkscape:connector-curvature="0" />
      <path
         style="fill:#6b798a"
         d="m 151.7552,330.22529 c -4.23057,-0.66656 -5.79313,-3.25674 -6.08798,-10.09175 -0.23778,-5.51201 0.0134,-6.4449 2.37022,-8.80236 1.56044,-1.56088 4.41693,-2.96492 7,-3.44069 2.40009,-0.44207 46.15138,-0.59597 97.22509,-0.342 85.71794,0.42624 113.15003,-0.068 123.88872,-2.23205 1.5125,-0.3048 2.75,-0.12294 2.75,0.40412 0,0.52707 1.575,3.57385 3.5,6.77063 4.56558,7.58189 4.8563,13.49506 0.79436,16.15693 -2.54731,1.6693 -9.3204,1.77952 -115.75,1.88356 -62.1744,0.0608 -114.23508,-0.0771 -115.69041,-0.30639 z m 229.94605,-4.50412 c 2.07591,-2.07591 1.32053,-7.21838 -1.77798,-12.10422 -2.85596,-4.50339 -3.17349,-4.69786 -7.75,-4.74651 -5.84511,-0.0622 -172.35416,-0.0577 -198.86309,0.005 l -19.09107,0.0457 -2.65893,4.88533 c -2.83661,5.21178 -3.41754,9.95606 -1.45893,11.91467 1.74213,1.74213 229.85787,1.74213 231.6,0 z m -19.15181,-58.34245 c -2.55167,-1.94835 -7.95342,-7.91085 -12.00388,-13.25 -13.73002,-18.09837 -27.52056,-29.41169 -47.69033,-39.12362 -18.90019,-9.10061 -36.91791,-12.83265 -56.57917,-11.71933 -18.05013,1.02209 -32.30494,4.14931 -46.84445,10.27673 -9.32883,3.93148 -9.91087,3.99112 -13.25749,1.35867 -6.06467,-4.77047 -12.57552,-0.75234 -15.69893,9.68851 -0.95619,3.19632 -1.91237,6.37399 -2.12485,7.06149 -0.42694,1.38143 -2.39906,1.62348 -3.94909,0.48469 -0.65462,-0.48095 -0.82731,-17.19051 -0.5,-48.38073 0.47288,-45.06196 0.60332,-47.76016 2.40499,-49.75 l 1.90499,-2.10396 97.23422,0 c 94.23857,0 97.30696,0.0589 99.59502,1.91122 l 2.36078,1.91123 0.5,67.58903 c 0.275,37.17397 0.22721,67.58892 -0.1062,67.58878 -0.33341,-1.4e-4 -2.69393,-1.59436 -5.24561,-3.54271 z m 2.10939,-67.98571 -0.25758,-62.91299 -2.5,-1.27286 c -1.98223,-1.00924 -22.2347,-1.22244 -97.78662,-1.02942 -83.42938,0.21314 -95.40535,0.43009 -96.2408,1.74343 -1.50869,2.37169 -0.78866,86.22841 0.74478,86.73931 0.73765,0.24577 1.64647,-1.2977 2.30631,-3.91686 1.56547,-6.21391 4.00664,-8.97974 8.58163,-9.72292 l 3.8947,-0.63267 0.26611,-27.90038 c 0.17687,-18.54325 0.63715,-28.34746 1.37245,-29.23343 0.90469,-1.09009 15.46731,-1.33305 79.9021,-1.33305 43.33767,0 79.50757,0.27315 80.37755,0.60699 1.41095,0.54143 1.58179,5.62096 1.58179,47.03212 0,36.97917 0.27763,47.07986 1.36451,49.64301 1.99117,4.69569 14.31899,17.43438 15.61645,16.13692 0.69588,-0.69588 0.94994,-21.61505 0.77662,-63.9472 z m -96.75758,-58.47184 c 0,-0.55 0.45,-1 1,-1 0.55,0 1,0.45 1,1 0,0.55 -0.45,1 -1,1 -0.55,0 -1,-0.45 -1,-1 z"
         id="path3183"
         inkscape:connector-curvature="0" />
      <path
         style="fill:#526f97"
         d="m 151.90125,330.2042 c -4.21015,-0.78373 -6,-3.16128 -6,-7.97014 0,-5.68877 2.31466,-11.11891 5.20557,-12.21212 1.26194,-0.47721 2.41746,-0.75957 2.56783,-0.62748 0.15037,0.1321 -0.85671,2.21714 -2.23796,4.63344 -2.69874,4.72108 -3.27365,9.75506 -1.33544,11.69327 1.74213,1.74213 229.85787,1.74213 231.6,0 2.07591,-2.07591 1.32053,-7.21838 -1.77798,-12.10422 -2.83038,-4.46306 -3.20208,-4.69578 -7.5,-4.69578 -2.48711,0 -4.52202,-0.45 -4.52202,-1 0,-0.55 1.7632,-1 3.91821,-1 2.15502,0 4.53937,-0.23836 5.29856,-0.52969 0.90185,-0.34607 2.66345,1.63929 5.08179,5.72725 4.76237,8.05034 5.11073,13.8328 0.9958,16.52939 -2.54699,1.66909 -9.33375,1.78033 -115.75,1.89725 -62.1744,0.0683 -114.16936,-0.0852 -115.54436,-0.34117 z m 209.94962,-65.15186 c -2.99729,-2.67786 -6.99316,-7.06536 -8.8797,-9.75 -3.15028,-4.48301 -2.88735,-4.31208 3.22337,2.09546 4.58236,4.80492 6.97539,6.65469 7.68767,5.94241 0.69588,-0.69588 0.94994,-21.61505 0.77662,-63.9472 l -0.25758,-62.91299 -2.5,-1.27286 c -1.98223,-1.00924 -22.2347,-1.22244 -97.78662,-1.02942 -83.43256,0.21315 -95.40456,0.43004 -96.23469,1.74343 -1.39002,2.19924 -1.28369,84.53875 0.11206,86.7737 1.41769,2.27009 -0.1762,8.7263 -2.15432,8.7263 -1.22457,0 -1.47473,-6.94728 -1.69613,-47.10281 -0.25586,-46.40709 -0.22894,-47.14191 1.82258,-49.75 l 2.08228,-2.64719 97.47287,0 97.47288,0 2.45454,2.45455 2.45455,2.45454 0,66.54546 c 0,36.6 -0.13517,66.54545 -0.30038,66.54545 -0.16521,0 -2.75271,-2.19097 -5.75,-4.86883 z M 342.47351,242.2914 c -14.99866,-16.77213 -38.93406,-30.97077 -62.40272,-37.0177 -22.84059,-5.88511 -55.78828,-3.29998 -78.30073,6.14359 -3.50284,1.46939 -7.54388,3.15896 -8.98008,3.75462 -2.17165,0.90068 -3.12361,0.7182 -5.65438,-1.08387 -4.80506,-3.4215 -9.38285,-2.9007 -13.25359,1.50783 -2.70764,3.08383 -3.10311,3.28482 -2.45946,1.25 1.81655,-5.74287 3.57869,-7.18191 9.9787,-8.14906 1.93759,-0.29281 2.0083,-1.17301 2.26611,-28.20589 0.17687,-18.54564 0.63714,-28.35072 1.37245,-29.2367 0.90469,-1.09009 15.46731,-1.33305 79.9021,-1.33305 43.33767,0 79.50757,0.27315 80.37755,0.60699 1.41089,0.54141 1.58179,5.61239 1.58179,46.9349 0,27.6813 0.39253,47.36034 0.97525,48.89301 0.53639,1.41081 0.87389,2.56485 0.75,2.56454 -0.12389,-3e-4 -2.89273,-2.98345 -6.15299,-6.62921 z M 267.90125,140.92117 c 0,-0.55 0.45,-1 1,-1 0.55,0 1,0.45 1,1 0,0.55 -0.45,1 -1,1 -0.55,0 -1,-0.45 -1,-1 z"
         id="path3181"
         inkscape:connector-curvature="0" />
    </g>
  </g>
</svg>
